<?xml version="1.0" encoding="utf-8"?>
<!-- Generator: Adobe Illustrator 21.0.2, SVG Export Plug-In . SVG Version: 6.00 Build 0)  -->
<svg version="1.1" xmlns="http://www.w3.org/2000/svg" xmlns:xlink="http://www.w3.org/1999/xlink" x="0px" y="0px"
	 viewBox="0 0 247.8 153.7" style="enable-background:new 0 0 247.8 153.7;" xml:space="preserve">
<style type="text/css">
	.st0{fill:#0088CC;}
</style>
<g id="Layer_4">
	<path class="st0" d="M201.5,18.3c-8.6,0-16.7,2.3-23.7,6.4c-0.2-0.3-0.4-0.5-0.6-0.8c-0.3-0.4-0.6-0.8-1-1.2
		c-0.2-0.3-0.5-0.6-0.7-0.9c-0.4-0.5-0.9-1-1.3-1.5c-0.2-0.3-0.5-0.5-0.7-0.8c-0.5-0.5-1-1-1.5-1.6c-0.2-0.2-0.5-0.5-0.7-0.7
		c-0.4-0.4-0.8-0.8-1.2-1.1c-0.3-0.2-0.5-0.5-0.8-0.7c-0.5-0.5-1.1-0.9-1.6-1.4c-0.3-0.2-0.5-0.4-0.8-0.6c-0.6-0.5-1.2-0.9-1.8-1.4
		c-0.2-0.2-0.5-0.3-0.7-0.5c-0.5-0.4-1-0.7-1.5-1.1c-0.2-0.1-0.4-0.3-0.6-0.4c-0.6-0.4-1.3-0.8-2-1.3c-0.2-0.1-0.5-0.3-0.7-0.4
		c-0.7-0.4-1.4-0.8-2.1-1.2c-0.2-0.1-0.4-0.2-0.7-0.3c-0.6-0.3-1.3-0.7-1.9-1c-0.2-0.1-0.3-0.2-0.5-0.2c-0.8-0.4-1.5-0.7-2.3-1
		c-0.2-0.1-0.4-0.2-0.7-0.3c-0.8-0.3-1.5-0.6-2.3-0.9C149,3.1,148.8,3,148.6,3c-0.8-0.3-1.5-0.5-2.3-0.8c-0.1,0-0.2-0.1-0.3-0.1
		c-0.8-0.3-1.7-0.5-2.6-0.7c-0.2-0.1-0.4-0.1-0.6-0.2c-0.9-0.2-1.7-0.4-2.6-0.6c-0.2,0-0.4-0.1-0.5-0.1c-0.9-0.2-1.8-0.3-2.7-0.5
		c0,0-0.1,0-0.1,0c-0.9-0.1-1.8-0.3-2.8-0.4c-0.2,0-0.4,0-0.5-0.1c-0.9-0.1-1.8-0.2-2.7-0.2c-0.2,0-0.4,0-0.5,0
		c-1,0-1.9-0.1-2.9-0.1c-1,0-1.9,0-2.9,0.1c-0.2,0-0.4,0-0.7,0c-0.9,0.1-1.8,0.1-2.8,0.2c-0.1,0-0.3,0-0.4,0
		c-0.8,0.1-1.6,0.2-2.4,0.3C118.2,0,118,0,117.7,0c-0.9,0.1-1.8,0.3-2.6,0.5c-0.2,0-0.4,0.1-0.7,0.1c-0.7,0.2-1.5,0.3-2.2,0.5
		c-0.2,0-0.4,0.1-0.6,0.1c-0.8,0.2-1.6,0.4-2.4,0.7c-0.3,0.1-0.5,0.2-0.8,0.3c-0.7,0.2-1.3,0.4-2,0.7c-0.3,0.1-0.5,0.2-0.8,0.3
		c-0.7,0.2-1.3,0.5-2,0.8c-0.3,0.1-0.6,0.3-1,0.4c-0.6,0.3-1.2,0.6-1.9,0.8c-0.4,0.2-0.8,0.4-1.2,0.6c-0.4,0.2-0.9,0.4-1.3,0.7
		c-0.4,0.2-0.7,0.4-1.1,0.6c-0.6,0.3-1.2,0.7-1.8,1c-0.4,0.2-0.8,0.5-1.2,0.7C94,9,93.7,9.2,93.4,9.4c-0.7,0.5-1.4,1-2.1,1.5
		c-0.2,0.1-0.4,0.3-0.6,0.4c-0.4,0.3-0.9,0.6-1.3,1c-0.2,0.1-0.4,0.3-0.6,0.4c-0.8,0.6-1.6,1.3-2.4,2c-0.1,0.1-0.2,0.1-0.3,0.2
		c-0.5,0.4-0.9,0.8-1.3,1.2c0,0-0.1,0.1-0.1,0.1c-0.9,0.8-1.7,1.7-2.5,2.5c0,0-0.1,0.1-0.1,0.1c-1.3,1.4-2.5,2.8-3.7,4.3
		c0,0,0,0-0.1,0.1c-1.2,1.5-2.3,3-3.3,4.7c-2.9-0.4-5.9-0.6-9-0.6c-36.5,0-66,29.5-66,66c0,27,16.2,50.2,39.4,60.4
		c-19-10.6-31.9-30.9-31.9-54.2c0-34.3,27.8-62,62-62c3.3,0,6.5,0.3,9.6,0.7c9.9-17.6,30.8-27.6,54.2-27.6c26,0,48.1,16.9,55.8,40.3
		c-1.2-6.9-3.6-13.4-6.9-19.4c5.9-2.9,12.6-4.6,19.7-4.6c18.6,0,37.7,11.8,45.9,28.1C242.9,34,224.1,18.3,201.5,18.3z"/>
</g>
<g id="Layer_6">
	<g>
		<path class="st0" d="M105.8,128.1c-0.5,0-0.8-0.4-0.5-0.8l28.1-44c0.3-0.5,0.8-0.5,1.1,0l28.1,44c0.3,0.5,0.1,0.8-0.5,0.8H105.8z"
			/>
	</g>
</g>
</svg>
