<?xml version="1.0" encoding="iso-8859-1"?>
<!-- Generator: Adobe Illustrator 19.0.0, SVG Export Plug-In . SVG Version: 6.00 Build 0)  -->
<svg version="1.1" id="Capa_1" xmlns="http://www.w3.org/2000/svg" xmlns:xlink="http://www.w3.org/1999/xlink" x="0px" y="0px"
	 viewBox="0 0 489.946 489.946" style="enable-background:new 0 0 489.946 489.946;" xml:space="preserve">
<g>
	<path d="M473.025,146.954l-110.5-18.8l-16.6-110.4c-2.5-17.9-24.6-23.5-35.4-10.4l-69.9,85.5l-104.2-41.7c-22-7.7-33.7,9.9-27.1,26
		l39.6,106.3l-86.5,67.7c-6.3,5.2-9.4,12.5-7.3,20.8c2.1,7.3,8.3,13.5,16.7,14.6l83.6,14.2l-149.2,153.6c-8.3,8.3-8.3,20.8,0,29.2
		c8.3,8.3,20.8,8.3,29.2,0l150.5-154.9l13.1,86.1c0.8,15.7,23,24.6,35.4,10.4l69.8-85.4l104.2,41.7c20.4,7.9,30.6-8.5,28.1-19.8
		c-0.7-3.1-40.6-111.5-40.6-111.5l86.5-67.7C495.225,171.754,491.425,150.454,473.025,146.954z M357.325,227.254
		c-7.3,5.2-9.4,14.6-6.3,22.9l28.1,75l-74-30.2c-7.3-3.1-17.7-1-22.9,6.3l-50,61.5l-12.5-79.2c-1-8.3-8.3-15.6-16.7-16.7l-79.2-13.5
		l62.5-49c7.3-5.2,9.4-14.6,6.3-22.9l-28.1-75l74,30.2c7.3,3.1,17.7,1,22.9-6.3l50-61.5l12.5,79.2c1,8.3,8.3,15.6,16.7,16.7
		l79.2,13.5L357.325,227.254z"/>
</g>
<g>
</g>
<g>
</g>
<g>
</g>
<g>
</g>
<g>
</g>
<g>
</g>
<g>
</g>
<g>
</g>
<g>
</g>
<g>
</g>
<g>
</g>
<g>
</g>
<g>
</g>
<g>
</g>
<g>
</g>
</svg>
