<?xml version="1.0" encoding="iso-8859-1"?>
<!-- Generator: Adobe Illustrator 19.0.0, SVG Export Plug-In . SVG Version: 6.00 Build 0)  -->
<svg version="1.1" id="Capa_1" xmlns="http://www.w3.org/2000/svg" xmlns:xlink="http://www.w3.org/1999/xlink" x="0px" y="0px"
	 viewBox="0 0 512 512" style="enable-background:new 0 0 512 512;" xml:space="preserve">
<g>
	<g>
		<path d="M266.609,357.859c-2.799-2.791-6.659-4.39-10.609-4.39s-7.81,1.6-10.61,4.39c-2.79,2.79-4.39,6.66-4.39,10.61
			c0,3.95,1.6,7.81,4.39,10.6c2.8,2.79,6.66,4.391,10.61,4.391s7.81-1.601,10.609-4.391c2.79-2.79,4.391-6.659,4.391-10.6
			C271,364.519,269.399,360.649,266.609,357.859z"/>
	</g>
</g>
<g>
	<g>
		<path d="M437.019,74.98C388.667,26.629,324.38,0,256,0C187.619,0,123.331,26.629,74.98,74.98C26.628,123.333,0,187.62,0,256
			c0,63.355,22.874,123.188,64.69,170.097L4.394,486.392c-5.858,5.857-5.858,15.354,0,21.213c2.929,2.93,6.767,4.393,10.607,4.393
			c3.838,0,7.678-1.465,10.606-4.393l60.297-60.295C132.813,489.125,192.645,512,256.001,512c68.38,0,132.667-26.629,181.019-74.98
			C485.371,388.666,512,324.38,512,256S485.371,123.333,437.019,74.98z M256,481.998C131.383,481.998,30,380.616,30,256
			C30,131.383,131.383,30,256,30s226,101.383,226,226C482,380.616,380.617,481.998,256,481.998z"/>
	</g>
</g>
<g>
	<g>
		<path d="M256,128.534c-8.284,0-15,6.716-15,15v128.531c0,8.284,6.716,15,15,15s15-6.716,15-15V143.534
			C271,135.25,264.284,128.534,256,128.534z"/>
	</g>
</g>
<g>
</g>
<g>
</g>
<g>
</g>
<g>
</g>
<g>
</g>
<g>
</g>
<g>
</g>
<g>
</g>
<g>
</g>
<g>
</g>
<g>
</g>
<g>
</g>
<g>
</g>
<g>
</g>
<g>
</g>
</svg>
