<?xml version="1.0" encoding="iso-8859-1"?>
<!-- Generator: Adobe Illustrator 19.0.0, SVG Export Plug-In . SVG Version: 6.00 Build 0)  -->
<svg version="1.1" id="Capa_1" xmlns="http://www.w3.org/2000/svg" xmlns:xlink="http://www.w3.org/1999/xlink" x="0px" y="0px"
	 viewBox="0 0 492.32 492.32" style="enable-background:new 0 0 492.32 492.32;" xml:space="preserve">
<g>
	<g>
		<path d="M312.8,295.6c33.448-41.079,51.652-92.466,51.52-145.44c0-79.529-64.471-144-144-144s-144,64.471-144,144
			c-0.393,55.522,19.589,109.261,56.16,151.04C80.077,313.472,33.378,343.139,0,385.36l25.12,19.84
			c34.445-43.887,85.166-71.989,140.64-77.92c34.721,20.228,77.75,19.736,112-1.28h6.56c25.96-0.001,51.687,4.884,75.84,14.4
			l11.52-30.24C352.764,302.786,332.973,297.892,312.8,295.6z M220.48,313.2c-74.4,0-114.24-95.2-114.24-163.04
			C106.24,87.111,157.351,36,220.4,36s114.16,51.111,114.16,114.16C334.56,218.48,294.88,313.2,220.48,313.2z"/>
	</g>
</g>
<g>
	<g>
		<polygon points="428.32,390.16 428.32,326.16 396.32,326.16 396.32,390.16 332.32,390.16 332.32,422.16 396.32,422.16 
			396.32,486.16 428.32,486.16 428.32,422.16 492.32,422.16 492.32,390.16 		"/>
	</g>
</g>
<g>
</g>
<g>
</g>
<g>
</g>
<g>
</g>
<g>
</g>
<g>
</g>
<g>
</g>
<g>
</g>
<g>
</g>
<g>
</g>
<g>
</g>
<g>
</g>
<g>
</g>
<g>
</g>
<g>
</g>
</svg>
