<svg x="0px" y="0px" width="200px" height="44px" viewBox="0 0 465.3 101.5" class="icon icon-logo">
	<defs>
		<linearGradient id="SVGID_1_" gradientUnits="userSpaceOnUse" x1="9.1866" y1="65.5187" x2="64.9071" y2="9.7982">
			<stop  offset="0" style="stop-color:#1B75BC"/>
			<stop  offset="1" style="stop-color:#2B3990"/>
		</linearGradient>
		<linearGradient id="SVGID_2_" gradientUnits="userSpaceOnUse" x1="15.8124" y1="59.1401" x2="73.0283" y2="1.9243">
			<stop  offset="0" style="stop-color:#27AAE1"/>
			<stop  offset="1" style="stop-color:#97DAF8"/>
		</linearGradient>
	</defs>
	<g>
		<path fill="#2B3990" d="M259.9,60.8c0,1.7-1.3,3-3,3h-19.5c0,0,0,0-0.1,0h-0.1c-0.8,0-1.7-0.3-2.3-1c-1.2-1.3-1-3.1,0.2-4.3l16.3-14.8
			c1.6-1.4,2.3-3.3,2.3-5.3c0-1.8-0.6-3.4-1.8-4.8c-1.4-1.6-3.4-2.3-5.3-2.3c-1.7,0-3.4,0.6-4.8,1.8l-1.7,1.5c-1.3,1.2-3.1,1-4.3-0.2
			c-1.1-1.3-1-3.1,0.2-4.3l1.7-1.5c2.5-2.3,5.7-3.4,8.9-3.4c3.6,0,7.2,1.5,9.8,4.3c2.3,2.5,3.4,5.7,3.4,8.9c0,3.6-1.5,7.2-4.3,9.8
			l-10.4,9.4h11.7C258.6,57.7,259.9,59.1,259.9,60.8z"/>
	</g>
	<path fill="#2B3990" d="M62.5,64.4c0,5.5-4.5,10.1-10.1,10.1H10.1C4.5,74.5,0,69.9,0,64.4V22C0,16.5,4.5,12,10.1,12h42.3
		C58,12,62.5,16.5,62.5,22V64.4z"/>

	<path fill="url(#SVGID_1_)" d="M68.7,58.4c0,5.5-4.5,10.1-10.1,10.1H16.3c-5.5,0-10.1-4.5-10.1-10.1V16.1C6.2,10.5,10.8,6,16.3,6h42.3
		c5.5,0,10.1,4.5,10.1,10.1V58.4z"/>
	<path fill="url(#SVGID_2_)" d="M75,52.4c0,5.5-4.5,10.1-10.1,10.1H22.5c-5.5,0-10.1-4.5-10.1-10.1V10.1C12.4,4.5,17,0,22.5,0h42.3
		C70.4,0,75,4.5,75,10.1V52.4z"/>
	<path fill="#FFFFFF" d="M67.1,12.3H20.3c-1.5,0-2.8-1.3-2.8-2.8V8.8c0-1.5,1.2-2.8,2.8-2.8h46.9c1.5,0,2.8,1.3,2.8,2.8v0.8
		C69.9,11.1,68.7,12.3,67.1,12.3z"/>
	<path fill="#FFFFFF" d="M42.2,16.3c-0.8,0-1.5,0.6-1.5,1.3v0.8c0,0.7,0.7,1.3,1.5,1.3h24.6c0.8,0,1.5-0.6,1.5-1.3v-0.8
		c0-0.7-0.7-1.3-1.5-1.3H42.2z"/>
	<path fill="#FFFFFF" d="M42.2,25.1c-0.8,0-1.5,0.6-1.5,1.3v0.8c0,0.7,0.7,1.3,1.5,1.3h24.6c0.8,0,1.5-0.6,1.5-1.3v-0.8
		c0-0.7-0.7-1.3-1.5-1.3H42.2z"/>
	<path fill="#FFFFFF" d="M43,33.6c-0.8,0-1.5,0.6-1.5,1.3v0.8c0,0.7,0.7,1.3,1.5,1.3h24.6c0.8,0,1.5-0.6,1.5-1.3V35
		c0-0.7-0.7-1.3-1.5-1.3H43z"/>
	<path fill="#FFFFFF" d="M59.4,42.8c-0.8,0-1.5,0.6-1.5,1.3v0.8c0,0.7,0.7,1.3,1.5,1.3h7.4c0.8,0,1.5-0.6,1.5-1.3v-0.8
		c0-0.7-0.7-1.3-1.5-1.3H59.4z"/>
	<path fill="#FFFFFF" d="M67.1,56.5H20.3c-1.5,0-2.8-1.3-2.8-2.8v-0.8c0-1.5,1.2-2.8,2.8-2.8h46.9c1.5,0,2.8,1.3,2.8,2.8v0.8
		C69.9,55.3,68.7,56.5,67.1,56.5z"/>
	<g>
		<path fill="#1B75BC" d="M101.6,28.6H90c-0.7,0-1.3-0.6-1.3-1.4c0-0.7,0.6-1.3,1.3-1.3h25.9c0.7,0,1.3,0.6,1.3,1.3
			c0,0.8-0.6,1.4-1.3,1.4h-11.6v34.5c0,0.7-0.6,1.3-1.3,1.3c-0.7,0-1.3-0.6-1.3-1.3V28.6z"/>
		<path fill="#1B75BC" d="M146.4,55.8c0-2.8-1.4-4.6-3.1-5.8c-1.7-1.2-3.7-1.8-4.5-1.9c-0.2-0.1-0.2-0.1-0.3-0.1h-9.4v15.2
			c0,0.7-0.6,1.3-1.4,1.3c-0.7,0-1.3-0.6-1.3-1.3V27.3c0-0.7,0.6-1.3,1.2-1.3h0.1h0.2h10.7c6.1,0,11,4.9,11,11c0,4.4-2.6,8.2-6.3,10
			c0.2,0.1,0.3,0.2,0.6,0.3c2.5,1.4,5.2,4.2,5.2,8.6c0,2.3,0.2,3.6,0.5,4.5c0.2,0.7,0.5,0.9,0.6,0.9c0.6-0.1,1.3,0.3,1.5,0.9
			c0.2,0.7-0.2,1.5-0.9,1.8c-0.1,0-0.3,0.1-0.7,0.1h-0.1c-0.7,0-1.9-0.5-2.5-1.8C146.8,60.8,146.4,59,146.4,55.8z M138.7,28.6h-9.5
			v16.6h9.2h0.5c4.5-0.1,8.1-3.8,8.1-8.3C147,32.3,143.3,28.6,138.7,28.6z"/>
		<path fill="#1B75BC" d="M158.4,27.3c0-0.7,0.6-1.3,1.3-1.3c0.8,0,1.4,0.6,1.4,1.3v21.6c0,7.1,5.8,12.8,12.8,12.9
			c7.2-0.1,12.9-5.8,12.9-12.9V27.3c0-0.7,0.6-1.3,1.3-1.3c0.8,0,1.4,0.6,1.4,1.3v21.6c0,8.6-7,15.6-15.6,15.6
			c-8.5,0-15.5-7-15.5-15.6V27.3z"/>
		<path fill="#1B75BC" d="M200.4,27.3c0-0.7,0.6-1.3,1.3-1.3h0.1h19.7c0.8,0,1.3,0.6,1.3,1.3c0,0.8-0.6,1.4-1.3,1.4h-18.4v15.2h16.1
			c0.7,0,1.3,0.6,1.3,1.4c0,0.7-0.6,1.3-1.3,1.3h-16.1v15.2h18.4c0.8,0,1.3,0.6,1.3,1.4c0,0.7-0.6,1.3-1.3,1.3h-19.6h-0.2h-0.1
			c-0.7-0.1-1.2-0.6-1.2-1.3V27.3z"/>
	</g>
	<g>
		<path fill="#1B75BC" d="M274.8,61.4V29c0-1.6,1.3-3,3-3h0.1c0,0,0,0,0.1,0h17.8c1.6,0,3,1.4,3,3c0,1.7-1.4,3.1-3,3.1h-14.9v10.1h12.8
			c1.7,0,3,1.4,3,3c0,1.7-1.4,3.1-3,3.1h-12.8v13.2c0,1.7-1.4,3-3.1,3C276.1,64.4,274.8,63.1,274.8,61.4z"/>
		<path fill="#1B75BC" d="M337.3,30.7c3.4,3.6,5.6,8.5,5.6,13.9c0,5.4-2.1,10.3-5.6,13.9c-3.2,3.6-8.1,5.9-13.2,5.9
			c-5.3,0-10.1-2.3-13.5-5.9c-3.4-3.6-5.4-8.5-5.4-13.9c0-5.4,2-10.3,5.4-13.9c3.4-3.6,8.2-5.9,13.5-5.9
			C329.2,24.8,334.1,27.1,337.3,30.7z M336.6,44.6c0-3.7-1.5-7.2-3.7-9.6c-2.3-2.5-5.4-3.9-8.7-3.9c-3.5,0-6.6,1.4-8.9,3.9
			c-2.3,2.4-3.7,5.9-3.7,9.6c0,3.7,1.4,7.2,3.7,9.6c2.3,2.5,5.4,4,8.9,4c3.3,0,6.4-1.5,8.7-4C335.1,51.8,336.6,48.4,336.6,44.6z"/>
		<path fill="#1B75BC" d="M379.2,59.9c0.6,1.6-0.3,3.3-1.9,3.9c-0.2,0.1-0.7,0.2-1.2,0.2c0,0,0,0-0.1,0c-0.6,0-1.4-0.1-2.1-0.6
			c-0.7-0.4-1.3-1.2-1.8-1.9c-0.8-1.6-1.2-3.6-1.2-6.6c-0.1-1-0.3-1.8-0.7-2.4c-0.3-0.6-1-1.2-1.7-1.6c-1.2-0.8-2.6-1.2-3.1-1.3H359
			v11.9c0,1.7-1.4,3-3.1,3c-1.7,0-3-1.4-3-3V29c0-1.7,1.3-3,3-3c0,0,0,0,0.1,0h9.8c6.5,0,11.8,5.3,11.8,11.8c0,3.6-1.6,6.8-4.3,9
			c0.7,0.6,1.4,1.2,1.9,2c1.1,1.6,1.8,3.6,1.8,5.9c-0.1,1.7,0.1,2.7,0.2,3.2C378.1,58.3,378.9,58.9,379.2,59.9z M371.5,37.8
			c0-3.2-2.5-5.7-5.7-5.7H359v11.3h6.8C369,43.4,371.5,40.8,371.5,37.8z"/>
		<path fill="#1B75BC" d="M421.2,29v32.5c0,1.7-1.4,3-3.1,3c-1.7,0-3-1.4-3-3V38.3l-7.9,11c-0.6,0.8-1.5,1.3-2.5,1.3h-0.1h-0.1
			c-1,0-1.9-0.4-2.5-1.3l-7.9-11v23.2c0,1.7-1.4,3-3.1,3c-1.7,0-3-1.4-3-3V29c0-1.6,1.4-3,3-3c0.1,0,0.1,0,0.2,0
			c0.9,0,1.9,0.4,2.4,1.3l11,15.2l10.9-15.2c0.6-0.8,1.5-1.3,2.5-1.3c0,0,0,0,0.1,0C419.8,26,421.2,27.3,421.2,29z"/>
		<path fill="#1B75BC" d="M433.3,54.9c1-1.2,2.8-1.4,4-0.4c2.4,2,6.6,4.3,10.5,4.2c2.8,0,5.2-0.8,6.9-2c1.6-1.2,2.4-2.6,2.4-4
			c0-0.7-0.2-1.2-0.5-1.8c-0.3-0.6-0.8-1.1-1.7-1.7c-1.6-1-4.3-2-7.5-2.6h-0.1c-2.6-0.5-5-1.2-7.1-2.1c-2.1-1-3.9-2.4-5.1-4.3
			c-0.8-1.3-1.3-2.9-1.3-4.5c0-3.3,1.9-6.2,4.4-8c2.6-1.9,5.9-2.9,9.5-2.9c5.3,0,9.2,2.6,12,4.4c1.3,0.9,1.7,2.6,0.8,3.9
			c-0.8,1.3-2.6,1.7-3.9,0.8c-2.8-1.9-5.5-3.5-8.9-3.5c-2.5,0-4.7,0.8-6.2,1.9c-1.5,1.1-2.1,2.3-2.1,3.5c0,0.7,0.1,1.1,0.4,1.5
			c0.3,0.4,0.8,0.9,1.5,1.4c1.4,1,3.9,1.9,6.9,2.4h0.1c2.8,0.6,5.4,1.3,7.6,2.3c2.3,1.1,4.2,2.5,5.5,4.6c0.8,1.3,1.3,3,1.3,4.7
			c0,3.5-2,6.5-4.7,8.5c-2.7,2-6.3,3.1-10.2,3.1c-5.9-0.1-11-3-14.1-5.5C432.6,57.9,432.4,56.1,433.3,54.9z"/>
	</g>
	<g>
		<path fill="#27AAE1" d="M4.9,86h2.3c2.2,0,3.7,0.1,4.5,0.4c0.8,0.3,1.4,0.7,1.9,1.4c0.5,0.7,0.7,1.4,0.7,2.3c0,0.9-0.3,1.8-0.8,2.5
			c-0.5,0.7-1.2,1.3-2.1,1.6c1,0.3,1.9,0.9,2.4,1.6c0.6,0.8,0.9,1.7,0.9,2.7c0,1.1-0.3,2-0.8,2.8c-0.5,0.8-1.2,1.3-2,1.7
			c-0.9,0.3-2.3,0.5-4.4,0.5h-5L4.9,86z M5.4,95.2l-0.9,6.7h2.4c1.7,0,2.8-0.1,3.4-0.2c0.9-0.2,1.5-0.6,2-1.1c0.5-0.5,0.7-1.2,0.7-2
			c0-0.7-0.2-1.3-0.5-1.8c-0.4-0.5-1-0.9-1.8-1.1c-0.8-0.3-2.1-0.4-3.7-0.4H5.4z M6.4,87.6l-0.8,5.9c0.3,0,0.7,0,1.2,0
			c1.6,0,2.7-0.1,3.4-0.4c0.7-0.3,1.2-0.7,1.6-1.2c0.4-0.5,0.6-1.2,0.6-1.8c0-0.9-0.3-1.5-0.9-1.9c-0.6-0.4-1.9-0.6-3.9-0.6
			C7.4,87.6,6.9,87.6,6.4,87.6z"/>
		<path fill="#27AAE1" d="M38.8,97.4H27.2c0,1.5,0.4,2.8,1.2,3.7c0.8,0.9,1.9,1.3,3.3,1.3c0.9,0,1.8-0.2,2.6-0.6
			c0.8-0.4,1.4-0.9,1.9-1.6l1.2,1c-0.6,0.8-1.5,1.5-2.5,1.9c-1,0.5-2.1,0.7-3.3,0.7c-2,0-3.6-0.6-4.6-1.9c-1-1.3-1.5-2.7-1.5-4.3
			c0-1.3,0.3-2.5,1-3.7c0.7-1.2,1.6-2.1,2.8-2.8c1.2-0.7,2.4-1,3.8-1c1.7,0,3,0.6,4.1,1.7c1.1,1.1,1.6,2.6,1.6,4.3
			C38.9,96.5,38.9,96.9,38.8,97.4z M37.3,95.9c0-1.2-0.5-2.2-1.3-3c-0.8-0.8-1.8-1.1-3-1.1c-1.3,0-2.4,0.4-3.4,1.1
			c-1,0.7-1.7,1.7-2.1,3H37.3z"/>
		<path fill="#27AAE1" d="M53.9,85.7h1.6l-0.6,4.9h2.6L57.3,92h-2.6l-1.5,11.6h-1.7L53.1,92h-2.2l0.2-1.5h2.2L53.9,85.7z"/>
		<path fill="#27AAE1" d="M71.1,85.7h1.6L72,90.5h2.6L74.5,92h-2.6l-1.5,11.6h-1.7L70.2,92H68l0.2-1.5h2.2L71.1,85.7z"/>
		<path fill="#27AAE1" d="M97.8,97.4H86.2c0,1.5,0.4,2.8,1.2,3.7c0.8,0.9,1.9,1.3,3.3,1.3c0.9,0,1.8-0.2,2.6-0.6
			c0.8-0.4,1.4-0.9,1.9-1.6l1.2,1c-0.6,0.8-1.5,1.5-2.5,1.9c-1,0.5-2.1,0.7-3.3,0.7c-2,0-3.6-0.6-4.6-1.9c-1-1.3-1.5-2.7-1.5-4.3
			c0-1.3,0.3-2.5,1-3.7c0.7-1.2,1.6-2.1,2.8-2.8c1.2-0.7,2.4-1,3.8-1c1.7,0,3,0.6,4.1,1.7c1.1,1.1,1.6,2.6,1.6,4.3
			C97.9,96.5,97.9,96.9,97.8,97.4z M96.3,95.9c0-1.2-0.5-2.2-1.3-3c-0.8-0.8-1.8-1.1-3-1.1c-1.3,0-2.4,0.4-3.4,1.1
			c-1,0.7-1.7,1.7-2.1,3H96.3z"/>
		<path fill="#27AAE1" d="M110.2,90.5h1.7l-0.2,1.6c0.4-0.6,1-1.1,1.6-1.5c0.6-0.3,1.3-0.5,1.9-0.5c0.5,0,1,0.1,1.5,0.3l-0.8,1.5
			c-0.4-0.2-0.8-0.3-1-0.3c-0.6,0-1.2,0.2-1.7,0.6c-0.6,0.4-1,1-1.4,1.8c-0.4,0.8-0.7,2.1-0.9,3.8l-0.8,5.5h-1.6L110.2,90.5z"/>
		<path fill="#27AAE1" stroke="#27AAE1" stroke-width="0.4527" stroke-miterlimit="10" d="M143.6,86h8.6l-0.4,3.1h-5.3l-0.5,3.6h5.3l-0.4,3.1h-5.3l-1.1,7.7h-3.3L143.6,86z"/>
		<path fill="#27AAE1" stroke="#27AAE1" stroke-width="0.4527" stroke-miterlimit="10" d="M169.3,90.2c1.2,0,2.2,0.3,3.2,0.8c0.9,0.5,1.7,1.3,2.2,2.3c0.5,1,0.8,2.1,0.8,3.3c0,2-0.7,3.8-2.2,5.2
			c-1.4,1.4-3.2,2.1-5.4,2.1c-1.9,0-3.3-0.6-4.4-1.7c-1.1-1.1-1.7-2.6-1.7-4.4c0-2.2,0.7-4,2.2-5.4C165.6,90.9,167.3,90.2,169.3,90.2
			z M169.1,93.2c-1.3,0-2.3,0.5-3,1.4c-0.7,0.9-1,2-1,3c0,1,0.3,1.8,0.9,2.4c0.6,0.6,1.3,0.9,2.3,0.9c1.3,0,2.4-0.5,3.1-1.4
			c0.7-0.9,1.1-1.9,1.1-3.1c0-1-0.3-1.7-0.9-2.3C170.8,93.5,170.1,93.2,169.1,93.2z"/>
		<path fill="#27AAE1" stroke="#27AAE1" stroke-width="0.4527" stroke-miterlimit="10" d="M187.3,90.5h2.8l-0.2,1.8c0.9-1.4,1.9-2.1,3.1-2.1c0.3,0,0.6,0.1,0.9,0.2l-1.2,2.9c-0.2-0.1-0.4-0.1-0.5-0.1
			c-0.6,0-1.2,0.4-1.7,1.1c-0.5,0.7-0.9,2.2-1.2,4.4l-0.6,4.9h-3.2L187.3,90.5z"/>
		<path fill="#27AAE1" stroke="#27AAE1" stroke-width="0.4527" stroke-miterlimit="10" d="M204.7,90.5h3.2l-0.2,1.4c1.2-1.2,2.5-1.8,3.9-1.8c0.6,0,1.1,0.1,1.6,0.3c0.5,0.2,0.9,0.5,1.2,0.8
			c0.3,0.3,0.6,0.7,0.8,1.3c0.6-0.8,1.3-1.4,2.1-1.8c0.8-0.4,1.6-0.6,2.5-0.6c1.1,0,2,0.4,2.7,1.1c0.7,0.7,1.1,1.7,1.1,2.8
			c0,0.4,0,1-0.1,1.6l-1.1,7.8h-3.2l0.9-6.7c0.1-0.9,0.2-1.5,0.2-1.8c0-0.6-0.2-1.1-0.5-1.4c-0.3-0.3-0.7-0.5-1.3-0.5
			c-0.5,0-1.1,0.2-1.7,0.6c-0.6,0.4-1,0.9-1.3,1.5c-0.3,0.6-0.5,1.7-0.7,3.3l-0.7,4.9h-3.2l1-7.1c0.1-0.6,0.1-1.1,0.1-1.5
			c0-0.6-0.2-1-0.5-1.4c-0.3-0.3-0.8-0.5-1.3-0.5c-0.5,0-1,0.2-1.6,0.5c-0.5,0.4-1,0.8-1.3,1.5c-0.3,0.6-0.5,1.5-0.7,2.8l-0.7,5.6
			h-3.2L204.7,90.5z"/>
		<path fill="#27AAE1" stroke="#27AAE1" stroke-width="0.4527" stroke-miterlimit="10" d="M243.7,92.4l-1.5,2.4c-0.4-0.6-0.8-1-1.2-1.3c-0.4-0.3-0.8-0.4-1.2-0.4c-0.3,0-0.5,0.1-0.7,0.2
			c-0.2,0.2-0.3,0.3-0.3,0.5c0,0.2,0.1,0.4,0.2,0.6c0.2,0.2,0.6,0.6,1.4,1.1c1.2,0.9,2,1.6,2.4,2.3c0.4,0.6,0.6,1.3,0.6,2
			c0,1-0.4,1.9-1.2,2.7c-0.8,0.9-1.9,1.3-3.5,1.3c-0.9,0-1.7-0.2-2.4-0.5c-0.7-0.4-1.5-1-2.4-1.9l2-2.3c0.9,1.2,1.9,1.8,2.9,1.8
			c0.4,0,0.8-0.1,1-0.3c0.3-0.2,0.4-0.4,0.4-0.7c0-0.2-0.1-0.5-0.3-0.7c-0.2-0.2-0.7-0.7-1.6-1.3c-1-0.7-1.7-1.3-2-1.8
			c-0.5-0.7-0.8-1.4-0.8-2.2c0-1.1,0.4-2,1.2-2.7c0.8-0.7,1.8-1,2.9-1c0.8,0,1.5,0.2,2.3,0.6C242.6,91.1,243.2,91.7,243.7,92.4z"/>
		<path fill="#27AAE1" d="M272.5,86h2.3c2.2,0,3.7,0.1,4.5,0.4c0.8,0.3,1.4,0.7,1.9,1.4c0.5,0.7,0.7,1.4,0.7,2.3c0,0.9-0.3,1.8-0.8,2.5
			c-0.5,0.7-1.2,1.3-2.1,1.6c1,0.3,1.9,0.9,2.4,1.6c0.6,0.8,0.9,1.7,0.9,2.7c0,1.1-0.3,2-0.8,2.8c-0.5,0.8-1.2,1.3-2,1.7
			c-0.9,0.3-2.3,0.5-4.4,0.5h-5L272.5,86z M273,95.2l-0.9,6.7h2.4c1.7,0,2.8-0.1,3.4-0.2c0.9-0.2,1.5-0.6,2-1.1
			c0.5-0.5,0.7-1.2,0.7-2c0-0.7-0.2-1.3-0.5-1.8c-0.4-0.5-1-0.9-1.8-1.1c-0.8-0.3-2.1-0.4-3.7-0.4H273z M274,87.6l-0.8,5.9
			c0.3,0,0.7,0,1.2,0c1.6,0,2.7-0.1,3.4-0.4c0.7-0.3,1.2-0.7,1.6-1.2c0.4-0.5,0.6-1.2,0.6-1.8c0-0.9-0.3-1.5-0.9-1.9
			c-0.6-0.4-1.9-0.6-3.9-0.6C275,87.6,274.5,87.6,274,87.6z"/>
		<path fill="#27AAE1" d="M306.4,97.4h-11.6c0,1.5,0.4,2.8,1.2,3.7c0.8,0.9,1.9,1.3,3.3,1.3c0.9,0,1.8-0.2,2.6-0.6
			c0.8-0.4,1.4-0.9,1.9-1.6l1.2,1c-0.6,0.8-1.5,1.5-2.5,1.9c-1,0.5-2.1,0.7-3.3,0.7c-2,0-3.6-0.6-4.6-1.9c-1-1.3-1.5-2.7-1.5-4.3
			c0-1.3,0.3-2.5,1-3.7c0.7-1.2,1.6-2.1,2.8-2.8c1.2-0.7,2.4-1,3.8-1c1.7,0,3,0.6,4.1,1.7c1.1,1.1,1.6,2.6,1.6,4.3
			C306.5,96.5,306.5,96.9,306.4,97.4z M304.9,95.9c0-1.2-0.5-2.2-1.3-3c-0.8-0.8-1.8-1.1-3-1.1c-1.3,0-2.4,0.4-3.4,1.1
			c-1,0.7-1.7,1.7-2.1,3H304.9z"/>
		<path fill="#27AAE1" d="M321.5,85.7h1.6l-0.6,4.9h2.6l-0.2,1.5h-2.6l-1.5,11.6h-1.7l1.6-11.6h-2.2l0.2-1.5h2.2L321.5,85.7z"/>
		<path fill="#27AAE1" d="M338.7,85.7h1.6l-0.6,4.9h2.6l-0.2,1.5h-2.6l-1.5,11.6h-1.7l1.6-11.6h-2.2l0.2-1.5h2.2L338.7,85.7z"/>
		<path fill="#27AAE1" d="M365.4,97.4h-11.6c0,1.5,0.4,2.8,1.2,3.7c0.8,0.9,1.9,1.3,3.3,1.3c0.9,0,1.8-0.2,2.6-0.6
			c0.8-0.4,1.4-0.9,1.9-1.6l1.2,1c-0.6,0.8-1.5,1.5-2.5,1.9c-1,0.5-2.1,0.7-3.3,0.7c-2,0-3.6-0.6-4.6-1.9c-1-1.3-1.5-2.7-1.5-4.3
			c0-1.3,0.3-2.5,1-3.7c0.7-1.2,1.6-2.1,2.8-2.8c1.2-0.7,2.4-1,3.8-1c1.7,0,3,0.6,4.1,1.7c1.1,1.1,1.6,2.6,1.6,4.3
			C365.5,96.5,365.5,96.9,365.4,97.4z M363.9,95.9c0-1.2-0.5-2.2-1.3-3c-0.8-0.8-1.8-1.1-3-1.1c-1.3,0-2.4,0.4-3.4,1.1
			c-1,0.7-1.7,1.7-2.1,3H363.9z"/>
		<path fill="#27AAE1" d="M377.8,90.5h1.7l-0.2,1.6c0.4-0.6,1-1.1,1.6-1.5c0.6-0.3,1.3-0.5,1.9-0.5c0.5,0,1,0.1,1.5,0.3l-0.8,1.5
			c-0.4-0.2-0.8-0.3-1-0.3c-0.6,0-1.2,0.2-1.7,0.6c-0.6,0.4-1,1-1.4,1.8c-0.4,0.8-0.7,2.1-0.9,3.8l-0.8,5.5h-1.6L377.8,90.5z"/>
		<path fill="#27AAE1" stroke="#27AAE1" stroke-width="0.4527" stroke-miterlimit="10" d="M411.2,86h8.6l-0.4,3.1h-5.3l-0.5,3.6h5.3l-0.4,3.1h-5.3l-1.1,7.7h-3.3L411.2,86z"/>
		<path fill="#27AAE1" stroke="#27AAE1" stroke-width="0.4527" stroke-miterlimit="10" d="M431.1,90.5h3.2l-0.9,6.7c-0.1,0.7-0.1,1.3-0.1,1.7c0,0.6,0.2,1.1,0.6,1.4c0.4,0.4,0.9,0.6,1.6,0.6
			c0.8,0,1.5-0.3,1.9-0.8c0.4-0.5,0.8-1.5,1-3.1l0.9-6.5h3.2l-0.9,7c-0.2,1.6-0.6,2.8-1.1,3.7c-0.5,0.9-1.2,1.5-2,2
			c-0.8,0.5-1.8,0.7-3,0.7c-1.6,0-2.9-0.5-3.8-1.4c-0.9-0.9-1.4-2.1-1.4-3.6c0-0.9,0.1-2,0.3-3.4L431.1,90.5z"/>
		<path fill="#27AAE1" stroke="#27AAE1" stroke-width="0.4527" stroke-miterlimit="10" d="M454.6,90.5h3.2l-0.2,1.3c1.2-1.1,2.5-1.7,3.8-1.7c1.1,0,2,0.4,2.8,1.1c0.7,0.7,1.1,1.6,1.1,2.7
			c0,0.5-0.1,1.3-0.2,2.3l-1,7.3h-3.2l1-7.1c0.1-0.7,0.1-1.3,0.1-1.7c0-0.5-0.2-0.9-0.5-1.2c-0.3-0.3-0.7-0.4-1.3-0.4
			c-0.5,0-1.1,0.2-1.6,0.6c-0.5,0.4-1,0.9-1.2,1.5c-0.3,0.7-0.6,1.9-0.8,3.7l-0.6,4.6h-3.2L454.6,90.5z"/>
	</g>
	<g>
		<path fill="#FFFFFF" d="M29.8,15.8v1.9c1.9,0.1,3.5,0.4,4.8,1c1,0.4,1.5,1.1,1.5,2c0,1.2-0.7,2.2-2.1,2.2c-0.2,0-0.6-0.1-1-0.2
			c-1.6-0.5-3.1-0.7-4.5-0.7c-2.7,0-4,1.3-4,3.2c0,0.9,0.5,1.7,1,2.2c0.2,0.2,0.6,0.5,1.2,0.8l1.3,0.6l1.6,0.6
			c0.9,0.3,1.6,0.6,2.1,0.9c0.5,0.2,1.2,0.6,1.9,1c0.8,0.5,1.4,1,1.8,1.5c0.9,0.9,1.6,2.6,1.6,4.5c0,4.3-2.7,6.8-7.3,7.4v1.9
			c0,1-0.6,1.6-1.5,1.6c-1,0-1.5-0.5-1.5-1.6v-1.9c-2-0.1-3.7-0.4-5.1-1c-1.1-0.4-1.7-1.1-1.7-2.1c0-1.2,0.7-2.1,1.9-2.1
			c0.4,0,0.9,0.1,1.5,0.3c1.5,0.5,3,0.7,4.6,0.7c2.7,0,4.2-1.2,4.2-3.5c0-1.1-0.6-1.7-1.5-2.4c-0.5-0.3-1.6-0.8-2.2-1
			c-0.3-0.1-0.7-0.3-1.3-0.5l-1.3-0.5c-1.9-0.7-3-1.3-4.4-2.4c-1.3-1.2-2-2.9-2-5.1c0-4.4,2.7-7,7.2-7.5v-1.8c0-1,0.5-1.6,1.5-1.6
			C29.2,14.3,29.8,14.8,29.8,15.8z"/>
	</g>
</svg>