<svg version="1.1" id="_x31_" xmlns="http://www.w3.org/2000/svg" xmlns:xlink="http://www.w3.org/1999/xlink" x="0px" y="0px"
	 viewBox="0 0 388.6 80.2" style="enable-background:new 0 0 388.6 80.2;" xml:space="preserve" class="icon icon-logo">
<style type="text/css">
	.st0{fill-rule:evenodd;clip-rule:evenodd;}
	.st1{fill-rule:evenodd;clip-rule:evenodd;fill:#A998C9;}
	.st2{fill-rule:evenodd;clip-rule:evenodd;fill:#927DB9;}
	.st3{fill-rule:evenodd;clip-rule:evenodd;fill:#8399CE;}
	.st4{fill-rule:evenodd;clip-rule:evenodd;fill:#FFFFFF;}
</style>
<g>
	<path class="st0" d="M104.6,21.9v6.2h9.3v29.8h6.7V28h9.2v-6.2H104.6L104.6,21.9z M138.3,32.1H132v25.7h6.6V41.2
		c1.9-2.3,3.8-3.6,5.6-3.6c1.3,0,2.6,0.5,3.8,1.6l4.7-4.7c-2-1.9-4.3-2.7-6.4-2.7c-3.3,0-6.3,1.8-8,4.1L138.3,32.1L138.3,32.1z
		 M173.3,32.1v18.4c-1.9,1.1-3.8,1.8-5.5,1.8c-3.6,0.1-6.1-2.4-6.1-8.5V32.1h-6.5v11.7c0,9.9,4.9,14.1,10.4,14.4
		c2.8,0.2,5.7-0.7,8-2.4v2.1h6.3V32.1H173.3L173.3,32.1z M203,50.8c-1.3,0.9-3.3,1.4-5.1,1.4c-3.2,0-6.3-1.5-6.3-4.8h13.1
		c9.1,0,5.1-15.7-7.3-15.7c-7.4,0-13.3,6-13.3,13.3c0,9.1,7.2,13.2,14.1,13.3c3.5,0,7-1,9.4-2.9L203,50.8L203,50.8z M191.6,41.5
		c0-1.6,2.2-3.8,5.7-3.8c2,0,3.5,0.8,4.3,1.6c1.1,1.1,1,2.3-0.7,2.3H191.6L191.6,41.5z M220.4,32c3.4-3.5,10.8-3.7,10.4,1.8
		c-0.1,1.4-1,2.7-2.7,3.4c-7,3.3-13,7.5-13,15.4v5.2h22v-6.3h-14.9c0-4.1,3.5-6.6,9.3-9.5c4-2,5.7-5.1,5.7-8.4
		c0.1-11-12.9-13.6-20.7-6.6L220.4,32L220.4,32z M244.5,21.9v36h6.7V43.3h13.2v-6.2h-13.2v-9h14.1v-6.2H244.5L244.5,21.9z
		 M282.3,31.7c-7.3,0-13.4,5.9-13.4,13.3c0,7.4,6.1,13.3,13.4,13.3c7.3,0,13.4-5.8,13.4-13.3C295.6,37.6,289.6,31.7,282.3,31.7
		L282.3,31.7z M282.3,38.1c3.8,0,6.9,3,6.9,6.9c0,3.9-3,6.9-6.9,6.9c-3.8,0-6.9-3-6.9-6.9C275.4,41.1,278.4,38.1,282.3,38.1
		L282.3,38.1z M306.2,32.1h-6.3v25.7h6.6V41.2c1.9-2.3,3.8-3.6,5.6-3.6c1.3,0,2.6,0.5,3.8,1.6l4.7-4.7c-2-1.9-4.3-2.7-6.4-2.7
		c-3.3,0-6.3,1.8-8,4.1L306.2,32.1L306.2,32.1z M330.1,32.1h-6.3v25.7h6.6V39.4c1.8-1.1,3.8-1.7,5.5-1.8c3.5-0.1,6.1,2.3,6.1,8.4
		v11.7h6.5V46.2c0-2.3-0.2-4.3-0.7-6c2.1-1.5,4.4-2.5,6.4-2.5c3.4,0,5.9,2.4,5.9,8.4v11.7h6.5V46.2c0-10.5-5.5-14.5-11.3-14.4
		c-2.9,0.1-6.1,1.1-9.5,4.2c-2.3-3.1-5.6-4.4-9.1-4.2c-2.4,0.1-4.7,1-6.6,2.4V32.1L330.1,32.1z M370,53.1c1.5,2,4.7,5.3,9.7,5.3
		c5.1,0,8.9-3.2,8.9-8c0-4.7-2.6-7-8.5-9c-2-0.7-2.5-1.6-2.2-2.3c0.3-0.6,1.2-1.1,2.3-1c1,0,2.3,0.5,3.5,1.4l4.1-4.2
		c-2.9-2.5-4.6-3.6-8.5-3.5c-4.4,0-8,3.4-8,7.9c0,4.8,3.8,6.3,6.9,7.4c2.4,0.8,4.2,1.6,3.8,3.4c-0.2,0.9-1,1.5-2.4,1.5
		c-1.6,0-4-1.3-5.6-2.9L370,53.1z"/>
	<path class="st1" d="M15.9,0h56c4.4,0,8,3.6,8,8v56c0,4.4-3.6,8-8,8h-56c-4.4,0-8-3.6-8-8V8C7.9,3.6,11.5,0,15.9,0z"/>
	<path class="st2" d="M7.9,70.4V40.6c0-4.5,3.7-8.2,8.1-8.2h42.4c4.5,0,8.1,3.7,8.1,8.2V72H12.5C10.8,72,9.2,71.4,7.9,70.4z"/>
	<path class="st3" d="M8.2,20.7h43c4.5,0,8.2,3.7,8.2,8.2v43c0,4.5-3.7,8.2-8.2,8.2h-43C3.7,80.2,0,76.5,0,72V29
		C0,24.4,3.7,20.7,8.2,20.7z"/>
	<g>
		<path class="st4" d="M30.1,53c2.2,0.7,4.3,2,4.3,4.5c0,2-1.8,3.9-4.6,3.9c-2,0-4.5-0.9-7-3.5l-3.6,4.2c3.3,3.3,7.1,4.8,10.6,4.9
			c5.7,0.1,10.3-3.7,10.3-9.5c0-5.3-4.1-8.3-7.3-9.3l-2.6-0.9c-2.6-0.9-4-1.7-4-3.8c0-1.9,1.4-3.5,3.5-3.6c1.4-0.1,3.1,0.6,4.9,2.2
			l3.6-4c-2.6-2.6-5.6-3.7-8.4-3.8c-5.2-0.1-9.6,3.5-9.6,9.5c0,4.9,4.1,7.1,7.3,8.3L30.1,53z"/>
		<g>
			<rect x="27.5" y="31.7" class="st4" width="4.5" height="4.8"/>
			<rect x="27.5" y="64.5" class="st4" width="4.5" height="4.8"/>
		</g>
	</g>
</g>
</svg>
