<svg class="lp-main-background__left" width="1205" height="856" viewBox="0 0 318.82291 226.48334">
   	<defs>
      	<linearGradient id="bgGradient" x1="0" y1="0" x2="0" y2="100%" gradientTransform="rotate(13)">
        	<stop offset="0%" stop-color="#78a6fe"/>
        	<stop offset="100%" stop-color="#bea2ff"/>
      	</linearGradient>
  	</defs>
  	<g transform="translate(-510.33731,-498.89078)">
    	<g transform="translate(-1.7609977e-8,4.2763124)">
      		<path fill="url(#bgGradient)" d="m 510.33731,612.10414 c 0,-107.77146 0.0225,-113.26084 0.46302,-113.08182 0.25466,0.10349 0.76068,0.27891 1.12448,0.38983 1.71476,0.52282 10.41422,5.97516 15.3028,9.59096 1.40612,1.04003 4.16392,3.52373 6.12845,5.51934 3.87374,3.93503 40.54045,38.37857 44.02427,41.355 11.34392,9.69177 24.73881,16.84578 37.68675,20.12791 10.29525,2.60971 24.40888,3.07532 39.60044,1.30642 7.753,-0.90276 18.52618,-2.89377 25.71652,-4.75272 6.61602,-1.71048 13.58286,-2.51998 21.77618,-2.53026 14.72914,-0.0185 22.96463,2.59484 32.94063,10.45284 1.45521,1.14626 4.96755,4.47702 7.80521,7.40169 2.83765,2.92468 7.54062,7.71405 10.45104,10.64306 9.80491,9.86754 13.58673,12.00071 31.08854,17.53576 13.0093,4.11426 17.68046,5.83503 23.41562,8.62585 4.96864,2.41781 8.01111,4.50998 11.15346,7.66971 2.53545,2.54947 2.78492,2.90171 4.42902,6.2533 4.03466,8.22487 5.72492,16.77727 5.72193,28.95165 0,3.7073 -0.43736,11.45727 -0.82695,14.68438 -1.01487,8.4062 -4.20807,20.96656 -7.97034,31.35104 -1.74995,4.83021 -4.30472,10.88748 -4.8015,11.38427 -0.34507,0.34506 -18.56277,0.39177 -152.81067,0.39177 h -152.4189 z"/>
    	</g>
  	</g>
</svg>