<svg  xmlns="http://www.w3.org/2000/svg" class="lp-content-wrapper-background__oval" width="167.77802" height="50.232418"
   viewBox="0 0 44.391268 13.29066">
  <g
    
     transform="translate(-45.754733,-184.72008)">
    <g
       
       transform="translate(-793.1857,-440.7506)">
      <path
         d="m 7.15625,0.00390625 c -4.0936394,0.0226063 -6.43747345,0.1169439 -7.01367188,0.328125 -0.096,0.0105827 -0.15820312,0.0429187 -0.15820312,0.11132813 -0.45312756,1.78616692 8.8704637,3.56028652 11.537109,5.38281252 8.57023,5.8574741 9.940248,6.5440581 24.142578,21.9062501 14.160189,15.316573 18.072664,16.494147 26.712891,19.861328 5.736907,1.782728 13.043921,2.663175 21.480469,2.636719 8.436548,0.02646 15.743563,-0.853991 21.480468,-2.636719 8.64023,-3.367181 12.5527,-4.544755 26.71289,-19.861328 14.20233,-15.362192 15.57235,-16.048776 24.14258,-21.9062501 2.66665,-1.822526 11.99024,-3.5966456 11.53711,-5.38281252 0,-0.0684095 -0.0622,-0.10074545 -0.1582,-0.11132813 -0.76827,-0.2815748 -4.67756,-0.35225061 -11.68946,-0.32617187 V 0.00390625 c -13.10547,0.04875591 -36.98568,0.43945312 -71.152341,0.43945313 -0.331465,0 -0.543472,-0.001915 -0.873047,-0.001953 -0.329575,3.78e-5 -0.541582,0.001953 -0.873047,0.001953 -34.166665,0 -58.04687,-0.39069722 -71.152344,-0.43945313 -1.752973,-0.00651968 -3.3112345,-0.00753543 -4.675781,0 z"
         transform="matrix(0.26458333,0,0,0.26458333,838.94879,625.47104)" />
    </g>
  </g>
</svg>
