<?xml version="1.0" encoding="UTF-8"?><!DOCTYPE svg PUBLIC "-//W3C//DTD SVG 1.1//EN" "http://www.w3.org/Graphics/SVG/1.1/DTD/svg11.dtd"><svg xmlns="http://www.w3.org/2000/svg"><symbol id="icon-add" viewBox="0 0 490 490">
    <path d="M17.1 490h349.4c9.5 0 17.2-7.7 17.2-17.2v-89.2h89.2c9.5 0 17.1-7.7 17.1-17.1V17.1C490 7.6 482.3 0 472.9 0H123.5c-9.5 0-17.2 7.7-17.2 17.1v89.2H17.1C7.6 106.3 0 114 0 123.5v349.4c0 9.4 7.7 17.1 17.1 17.1zM140.6 34.3h315.1v315.1H140.6V34.3zM34.3 140.6h72v225.9c0 9.5 7.7 17.1 17.2 17.1h225.9v72H34.3v-315z"/>
    <path d="M219.5 209H281v61.5c0 9.5 7.7 17.2 17.2 17.2s17.1-7.7 17.1-17.2V209h61.5c9.5 0 17.1-7.7 17.1-17.2s-7.7-17.2-17.1-17.2h-61.5v-61.5c0-9.5-7.7-17.2-17.1-17.2-9.5 0-17.2 7.7-17.2 17.2v61.5h-61.5c-9.5 0-17.1 7.7-17.1 17.2-.1 9.5 7.6 17.2 17.1 17.2z"/>
</symbol><symbol id="icon-alarm-bell" viewBox="0 0 473.733 473.733">
    <path d="M22.648 398.65c2.55 6.233 8.783 10.483 15.583 10.483h123.533c5.383 36.55 37.117 64.6 74.8 64.6s69.417-28.05 74.8-64.6h123.817c.85 0 1.7 0 2.55-.283 6.233-.85 11.333-5.1 13.6-10.767 2.267-6.517.567-13.317-4.25-17.85l-.85-.85c-1.7-1.7-8.5-9.35-15.017-25.5-7.083-17.283-15.867-48.167-15.867-96.05 0-94.633-35.7-144.5-65.45-169.717-19.833-16.717-39.667-24.933-52.7-28.9-.567-11.617-3.4-27.483-14.167-40.233C275.665 10.2 261.782 0 237.132 0c-24.367 0-38.25 10.483-45.617 18.983-11.05 13.033-14.167 29.183-14.45 41.083-13.317 3.967-33.15 12.183-52.7 28.333-54.683 44.767-66.017 116.733-66.017 168.867 0 46.467-8.783 77.35-16.15 95.2-7.933 18.983-15.583 27.483-15.583 27.483-5.1 4.818-6.517 12.184-3.967 18.701zm214.2 41.083c-18.983 0-35.133-13.033-40.233-30.6h80.467c-5.1 17.567-21.25 30.6-40.234 30.6zm-144.5-182.466c0-152.433 99.733-166.883 103.7-167.45 4.533-.567 8.783-2.833 11.617-6.517 2.833-3.683 3.967-8.217 3.4-13.033-.85-5.383-1.417-21.25 6.233-30.033 1.417-1.7 5.95-7.083 19.833-7.083s18.417 5.383 20.117 7.083c7.083 8.217 6.8 23.8 5.95 28.9-.85 4.533.283 9.35 3.117 13.033 2.833 3.683 6.8 6.233 11.617 6.8.283 0 25.5 3.683 50.717 24.933 35.417 29.75 53.267 78.2 53.267 143.933 0 57.8 11.05 94.917 22.1 117.583H69.682c10.766-23.516 22.666-61.483 22.666-118.149z"/>
</symbol><symbol id="icon-alarm-clock" viewBox="0 0 512.002 512.002">
    <path d="M302.78 239.712c-4.434-4.429-11.619-4.429-16.05.001l-21.306 21.306a27.044 27.044 0 0 0-9.422-1.687c-3.314 0-6.49.599-9.429 1.691l-43.793-43.795c-4.431-4.429-11.616-4.429-16.046 0-4.431 4.431-4.432 11.616 0 16.048l43.797 43.798a27.02 27.02 0 0 0-1.686 9.418c0 14.975 12.183 27.159 27.159 27.159 14.976 0 27.159-12.183 27.159-27.159 0-3.312-.598-6.487-1.688-9.426l21.306-21.306c4.43-4.431 4.43-11.616-.001-16.048zm-46.778 53.513c-3.714 0-6.735-3.022-6.735-6.735s3.022-6.735 6.735-6.735a6.743 6.743 0 0 1 6.735 6.735c-.001 3.714-3.022 6.735-6.735 6.735z"/>
    <path d="M389.959 114.459l12.856-18.36 51.541 36.09a11.338 11.338 0 0 0 8.478 1.881 11.34 11.34 0 0 0 7.324-4.666c26.013-37.151 16.952-88.54-20.198-114.555-37.151-26.017-88.542-16.953-114.553 20.198-3.595 5.133-2.346 12.208 2.786 15.802l46.034 32.234-12.859 18.365C337.88 80.494 298.334 68.36 256.002 68.36c-42.332 0-81.877 12.134-115.366 33.088l-12.86-18.365 46.034-32.234c5.133-3.595 6.381-10.669 2.787-15.802C150.584-2.105 99.195-11.166 62.043 14.848 24.892 40.861 15.83 92.25 41.843 129.402a11.342 11.342 0 0 0 15.802 2.785l51.541-36.09 12.856 18.36C70.85 154.412 37.87 216.669 37.87 286.491c0 75.929 39.004 142.91 98.02 181.99l-17.97 25.664c-3.595 5.132-2.346 12.208 2.786 15.802a11.287 11.287 0 0 0 6.498 2.054c3.576 0 7.097-1.687 9.304-4.84l18.986-27.115c30.097 15.691 64.281 24.579 100.506 24.579 36.221 0 70.402-8.886 100.496-24.573l18.982 27.11a11.336 11.336 0 0 0 9.304 4.841c2.247 0 4.518-.666 6.498-2.054 5.133-3.595 6.38-10.669 2.786-15.802l-17.965-25.657c59.021-39.079 98.029-106.063 98.029-181.996.003-69.825-32.976-132.082-84.171-172.035zm-28.567-75.068c20.088-19.425 51.829-22.564 75.553-5.955 23.724 16.613 31.629 47.514 20.246 73.033l-95.799-67.078zM54.814 106.47C43.43 80.951 51.335 50.049 75.06 33.437a59.227 59.227 0 0 1 34.077-10.751c15.177 0 30.173 5.775 41.475 16.706L54.814 106.47zm201.188 375.46c-107.766 0-195.439-87.673-195.439-195.439S148.236 91.053 256.002 91.053s195.439 87.673 195.439 195.438S363.767 481.93 256.002 481.93z"/>
    <path d="M256.002 126.07c-88.456 0-160.421 71.965-160.421 160.421s71.965 160.421 160.421 160.421 160.42-71.965 160.42-160.421-71.964-160.421-160.42-160.421zm106.64 251.014l-7.667-7.666c-4.431-4.43-11.616-4.43-16.046 0-4.431 4.431-4.431 11.616 0 16.046l7.666 7.667c-21.731 18.489-49.159 30.47-79.246 32.895v-10.912c0-6.266-5.08-11.347-11.347-11.347-6.267 0-11.347 5.081-11.347 11.347v10.912c-30.088-2.425-57.515-14.406-79.247-32.895l7.667-7.667c4.431-4.431 4.431-11.616 0-16.046s-11.616-4.43-16.048 0l-7.667 7.667c-18.489-21.731-30.47-49.159-32.895-79.247h10.912c6.267 0 11.347-5.08 11.347-11.347 0-6.267-5.08-11.347-11.347-11.347h-10.912c2.425-30.088 14.406-57.515 32.895-79.247l7.667 7.667c2.216 2.215 5.12 3.323 8.023 3.323s5.808-1.109 8.023-3.323c4.431-4.431 4.431-11.616 0-16.048l-7.667-7.667c21.731-18.489 49.159-30.47 79.247-32.895v10.913c0 6.266 5.08 11.347 11.347 11.347 6.267 0 11.347-5.081 11.347-11.347v-10.913c30.088 2.425 57.515 14.406 79.246 32.895l-7.666 7.667c-4.431 4.431-4.431 11.616 0 16.048 2.216 2.215 5.12 3.323 8.023 3.323s5.808-1.109 8.023-3.323l7.667-7.666c18.489 21.731 30.469 49.158 32.894 79.246h-10.912c-6.267 0-11.347 5.08-11.347 11.347s5.082 11.347 11.348 11.347h10.912c-2.423 30.088-14.404 57.515-32.893 79.246z"/>
</symbol><symbol id="icon-calendar" viewBox="0 0 366 366">
    <path d="M351.4 66c-2-9.6-7.2-18-14-24.4-10.8-10.8-25.6-17.2-41.6-17.2H271V7.6c0-4-3.2-7.6-7.6-7.6-4 0-7.6 3.2-7.6 7.6V24H111V7.6c0-4-3.2-7.6-7.6-7.6-4 0-7.6 3.2-7.6 7.6V24H71c-12.4 0-23.6 3.6-33.2 10-3.2 2-6 4.4-8.8 7.2C18.2 52 11.8 66.8 11.8 82.8v224.4c0 16.4 6.8 31.2 17.2 41.6C39.8 359.6 54.6 366 70.6 366h224.8c16.4 0 31.2-6.8 41.6-17.2 10.8-10.8 17.2-25.6 17.2-41.6V83.6c0-6-.8-12-2.8-17.6zm-11.6 241.6c0 12.4-4.8 23.6-12.8 31.6S307.8 352 295.8 352H71c-12 0-23.2-4.8-31.2-12.8S27 320 27 308V130.8h312.8v176.8zm.4-191.6H27V83.2c0-12 4.8-23.2 12.8-31.2S59 39.2 71 39.2h24.8v16.4c0 4 3.2 7.6 7.6 7.6 4 0 7.6-3.2 7.6-7.6V39.2h145.2v16.4c0 4 3.2 7.6 7.6 7.6 4 0 7.6-3.2 7.6-7.6V39.2h24.8c12 0 23.2 4.8 31.2 12.8 6 6 10.4 13.6 12 22.4.4 2.8.8 6 .8 8.8V116z"/>
    <path d="M85.4 198.8c6.4 0 12.4-2.8 16.8-6.8 4.4-4.4 6.8-10.4 6.8-16.8s-2.8-12.4-6.8-16.8c-4.4-4-10.4-6.8-16.8-6.8s-12.4 2.8-16.8 6.8c-4.4 4.4-6.8 10.4-6.8 16.8s2.8 12.4 6.8 16.8c4.4 4.4 10.4 6.8 16.8 6.8zm-6.8-30c1.6-1.6 3.6-2.4 6.4-2.4 2.4 0 4.8.8 6.4 2.4 1.6 1.6 2.4 3.6 2.4 6.4.4 2.8-.8 4.8-2.4 6.4-1.6 1.6-3.6 2.4-6.4 2.4-2.4 0-4.8-.8-6.4-2.4-1.6-1.6-2.4-3.6-2.4-6.4 0-2.4.8-4.8 2.4-6.4z"/>
    <path d="M150.6 198.8c6.4 0 12.4-2.8 16.8-6.8 4.4-4.4 6.8-10.4 6.8-16.8s-2.8-12.4-6.8-16.8-10-6.8-16.8-6.8c-6.4 0-12.4 2.8-16.8 6.8-4.4 4.4-6.8 10.4-6.8 16.8s2.8 12.4 6.8 16.8c4.4 4.4 10.4 6.8 16.8 6.8zm-6.4-30c1.6-1.6 3.6-2.4 6.4-2.4 2.4 0 4.8.8 6.4 2.4 1.6 1.6 2.4 3.6 2.4 6.4s-.8 4.8-2.4 6.4c-1.6 1.6-3.6 2.4-6.4 2.4-2.4 0-4.8-.8-6.4-2.4-1.6-1.6-2.4-3.6-2.4-6.4 0-2.4.8-4.8 2.4-6.4z"/>
    <path d="M216.2 198.8c6.4 0 12.4-2.8 16.8-6.8 4.4-4.4 6.8-10.4 6.8-16.8s-2.8-12.4-6.8-16.8-10.4-6.8-16.8-6.8-12.4 2.8-16.8 6.8-6.8 10.4-6.8 16.8 2.8 12.4 6.8 16.8c4.4 4.4 10.4 6.8 16.8 6.8zm-6.4-29.6c1.6-1.6 3.6-2.4 6.4-2.4 2.4 0 4.8.8 6.4 2.4 1.6 1.6 2.4 3.6 2.4 6.4 0 2.4-1.2 4.4-2.8 6-1.6 1.6-3.6 2.4-6.4 2.4-2.4 0-4.8-.8-6.4-2.4-1.2-1.6-2-3.6-2-6s.8-4.8 2.4-6.4z"/>
    <path d="M281.4 198.8c6.4 0 12.4-2.8 16.8-6.8 4.4-4.4 6.8-10.4 6.8-16.8s-2.8-12.4-6.8-16.8c-4-4-10-6.8-16.8-6.8-6.4 0-12.4 2.8-16.8 6.8-4.4 4.4-6.8 10.4-6.8 16.8s2.8 12.4 6.8 16.8c4.4 4.4 10.4 6.8 16.8 6.8zm-6.4-30c1.6-1.6 3.6-2.4 6.4-2.4 2.4 0 4.8.8 6.4 2.4 1.6 1.6 2.4 3.6 2.4 6.4s-.8 4.8-2.4 6.4c-1.6 1.6-3.6 2.4-6.4 2.4-2.4 0-4.8-.8-6.4-2.4-1.6-1.6-2.4-3.6-2.4-6.4 0-2.4.8-4.8 2.4-6.4z"/>
    <path d="M85.4 264.4c6.4 0 12.4-2.8 16.8-6.8 4.4-4.4 6.8-10.4 6.8-16.8s-2.8-12.4-6.8-16.8c-4.4-4.4-10.4-6.8-16.8-6.8S73 220 68.6 224c-4.4 4.4-6.8 10.4-6.8 16.8s2.8 12.4 6.8 16.8c4.4 4.4 10.4 6.8 16.8 6.8zm-6.8-30c1.6-1.6 3.6-2.4 6.4-2.4 2.4 0 4.8.8 6.4 2.4 1.6 1.6 2.4 3.6 2.4 6.4.4 2.4-.8 4.8-2.4 6.4-1.6 1.6-3.6 2.4-6.4 2.4-2.4 0-4.8-.8-6.4-2.4-1.6-1.6-2.4-3.6-2.4-6.4 0-2.4.8-4.8 2.4-6.4z"/>
    <path d="M150.6 264.4c6.4 0 12.4-2.8 16.8-6.8s6.8-10.4 6.8-16.8-2.8-12.4-6.8-16.8-10-6.8-16.8-6.8c-6.4 0-12.4 2.8-16.8 6.8-4.4 4.4-6.8 10.4-6.8 16.8s2.8 12.4 6.8 16.8c4.4 4.4 10.4 6.8 16.8 6.8zm-6.4-30c1.6-1.6 3.6-2.4 6.4-2.4 2.4 0 4.8.8 6.4 2.4 1.6 1.6 2.4 3.6 2.4 6.4 0 2.4-.8 4.8-2.4 6.4-1.6 1.6-3.6 2.4-6.4 2.4-2.4 0-4.8-.8-6.4-2.4-1.6-1.6-2.4-3.6-2.4-6.4 0-2.4.8-4.8 2.4-6.4z"/>
    <path d="M216.2 264.4c6.4 0 12.4-2.8 16.8-6.8s6.8-10.4 6.8-16.8-2.8-12.4-6.8-16.8-10.4-6.8-16.8-6.8-12.4 2.8-16.8 6.8-6.8 10.4-6.8 16.8 2.8 12.4 6.8 16.8 10.4 6.8 16.8 6.8zm-6.8-30c1.6-1.6 3.6-2.4 6.4-2.4 2.4 0 4.8.8 6.4 2.4 1.6 1.6 2.4 3.6 2.4 6.4.4 2.4-.8 4.8-2.4 6.4-1.6 1.6-3.6 2.4-6.4 2.4-2.4 0-4.8-.8-6.4-2.4-1.6-1.6-2.4-3.6-2.4-6.4 0-2.4.8-4.8 2.4-6.4z"/>
    <path d="M281.4 264.4c6.4 0 12.4-2.8 16.8-6.8 4.4-4.4 6.8-10.4 6.8-16.8s-2.8-12.4-6.8-16.8-10-6.8-16.8-6.8c-6.4 0-12.4 2.8-16.8 6.8-4.4 4.4-6.8 10.4-6.8 16.8s2.8 12.4 6.8 16.8c4.4 4.4 10.4 6.8 16.8 6.8zm-6.4-30c1.6-1.6 3.6-2.4 6.4-2.4 2.4 0 4.8.8 6.4 2.4 1.6 1.6 2.4 3.6 2.4 6.4 0 2.4-.8 4.8-2.4 6.4-1.6 1.6-3.6 2.4-6.4 2.4-2.4 0-4.8-.8-6.4-2.4-1.6-1.6-2.4-3.6-2.4-6.4 0-2.4.8-4.8 2.4-6.4z"/>
    <path d="M85.4 329.2c6.4 0 12.4-2.8 16.8-6.8 4.4-4.4 6.8-10.4 6.8-16.8s-2.8-12.4-6.8-16.8c-4.4-4.4-10.4-6.8-16.8-6.8s-12.4 2.8-16.8 6.8c-4.4 4.4-6.8 10.4-6.8 16.8s2.8 12.4 6.8 16.8c4.4 4.4 10.4 6.8 16.8 6.8zm-6.8-30c1.6-1.6 3.6-2.4 6.4-2.4 2.4 0 4.8.8 6.4 2.4 1.6 1.6 2.4 3.6 2.4 6.4.4 2.4-.8 4.8-2.4 6.4-1.6 1.6-3.6 2.4-6.4 2.4-2.4 0-4.8-.8-6.4-2.4-1.6-1.6-2.4-3.6-2.4-6.4 0-2.4.8-4.8 2.4-6.4z"/>
    <path d="M150.6 329.2c6.4 0 12.4-2.8 16.8-6.8s6.8-10.4 6.8-16.8-2.8-12.4-6.8-16.8-10-6.8-16.8-6.8c-6.4 0-12.4 2.8-16.8 6.8-4.4 4.4-6.8 10.4-6.8 16.8s2.8 12.4 6.8 16.8c4.4 4.4 10.4 6.8 16.8 6.8zm-6.4-30c1.6-1.6 3.6-2.4 6.4-2.4 2.4 0 4.8.8 6.4 2.4 1.6 1.6 2.4 3.6 2.4 6.4 0 2.4-.8 4.8-2.4 6.4-1.6 1.6-3.6 2.4-6.4 2.4-2.4 0-4.8-.8-6.4-2.4-1.6-1.6-2.4-3.6-2.4-6.4 0-2.4.8-4.8 2.4-6.4z"/>
    <path d="M216.2 329.2c6.4 0 12.4-2.8 16.8-6.8s6.8-10.4 6.8-16.8-2.8-12.4-6.8-16.8c-4.4-4.4-10.4-6.8-16.8-6.8s-12.4 2.8-16.8 6.8c-4.4 4.4-6.8 10.4-6.8 16.8s2.8 12.4 6.8 16.8 10.4 6.8 16.8 6.8zm-6.8-30c1.6-1.6 3.6-2.4 6.4-2.4 2.4 0 4.8.8 6.4 2.4 1.6 1.6 2.4 3.6 2.4 6.4.4 2.4-.8 4.8-2.4 6.4-1.6 1.6-3.6 2.4-6.4 2.4-2.4 0-4.8-.8-6.4-2.4-1.6-1.6-2.4-3.6-2.4-6.4 0-2.4.8-4.8 2.4-6.4z"/>
    <path d="M281.4 329.2c6.4 0 12.4-2.8 16.8-6.8 4.4-4.4 6.8-10.4 6.8-16.8s-2.8-12.4-6.8-16.8-10-6.8-16.8-6.8c-6.4 0-12.4 2.8-16.8 6.8-4.4 4.4-6.8 10.4-6.8 16.8s2.8 12.4 6.8 16.8c4.4 4.4 10.4 6.8 16.8 6.8zm-6.4-30c1.6-1.6 3.6-2.4 6.4-2.4 2.4 0 4.8.8 6.4 2.4 1.6 1.6 2.4 3.6 2.4 6.4 0 2.4-.8 4.8-2.4 6.4-1.6 1.6-3.6 2.4-6.4 2.4-2.4 0-4.8-.8-6.4-2.4-1.6-1.6-2.4-3.6-2.4-6.4 0-2.4.8-4.8 2.4-6.4z"/>
</symbol><symbol id="icon-cancel" viewBox="0 0 64 64">
    <path d="M28.941 31.786L.613 60.114a2.014 2.014 0 1 0 2.848 2.849l28.541-28.541 28.541 28.541c.394.394.909.59 1.424.59a2.014 2.014 0 0 0 1.424-3.439L35.064 31.786 63.41 3.438A2.014 2.014 0 1 0 60.562.589L32.003 29.15 3.441.59A2.015 2.015 0 0 0 .593 3.439l28.348 28.347z"/>
</symbol><symbol id="icon-check-list" viewBox="0 0 512 512">
    <path d="M405.333 42.667h-44.632c-4.418-12.389-16.147-21.333-30.035-21.333h-32.229C288.417 8.042 272.667 0 256 0s-32.417 8.042-42.438 21.333h-32.229c-13.888 0-25.617 8.944-30.035 21.333h-44.631C83.146 42.667 64 61.802 64 85.333v384C64 492.865 83.146 512 106.667 512h298.667c23.52 0 42.666-19.135 42.666-42.667v-384c0-23.531-19.146-42.666-42.667-42.666zM170.667 53.333c0-5.885 4.792-10.667 10.667-10.667h37.917a10.64 10.64 0 0 0 9.208-5.302c5.854-10.042 16.146-16.031 27.542-16.031s21.688 5.99 27.542 16.031a10.643 10.643 0 0 0 9.208 5.302h37.917c5.875 0 10.667 4.781 10.667 10.667V64c0 11.76-9.563 21.333-21.333 21.333H192c-11.771 0-21.333-9.573-21.333-21.333V53.333zm256 416c0 11.76-9.563 21.333-21.333 21.333H106.667c-11.771 0-21.333-9.573-21.333-21.333v-384c0-11.76 9.563-21.333 21.333-21.333h42.667c0 23.531 19.146 42.667 42.667 42.667h128c23.521 0 42.667-19.135 42.667-42.667h42.667c11.771 0 21.333 9.573 21.333 21.333v384z"/>
    <path d="M160 170.667c-17.646 0-32 14.354-32 32s14.354 32 32 32 32-14.354 32-32-14.354-32-32-32zm0 42.666c-5.875 0-10.667-4.781-10.667-10.667 0-5.885 4.792-10.667 10.667-10.667s10.667 4.781 10.667 10.667-4.792 10.667-10.667 10.667z"/>
    <path d="M160 277.333c-17.646 0-32 14.354-32 32s14.354 32 32 32 32-14.354 32-32c0-17.645-14.354-32-32-32zM160 320c-5.875 0-10.667-4.781-10.667-10.667 0-5.885 4.792-10.667 10.667-10.667s10.667 4.781 10.667 10.667S165.875 320 160 320z"/>
    <path d="M160 384c-17.646 0-32 14.354-32 32s14.354 32 32 32 32-14.354 32-32-14.354-32-32-32zm0 42.667c-5.875 0-10.667-4.781-10.667-10.667 0-5.885 4.792-10.667 10.667-10.667s10.667 4.781 10.667 10.667c0 5.885-4.792 10.667-10.667 10.667z"/>
    <path d="M373.333 192h-128a10.66 10.66 0 0 0-10.667 10.667 10.66 10.66 0 0 0 10.667 10.667h128A10.66 10.66 0 0 0 384 202.667 10.66 10.66 0 0 0 373.333 192z"/>
    <path d="M373.333 298.667h-128a10.66 10.66 0 0 0-10.667 10.667 10.66 10.66 0 0 0 10.667 10.667h128A10.66 10.66 0 0 0 384 309.334a10.66 10.66 0 0 0-10.667-10.667z"/>
    <path d="M373.333 405.333h-128A10.66 10.66 0 0 0 234.666 416a10.66 10.66 0 0 0 10.667 10.667h128A10.66 10.66 0 0 0 384 416a10.66 10.66 0 0 0-10.667-10.667z"/>
</symbol><symbol id="icon-checked" viewBox="0 0 26 26">
    <path d="M.3 14c-.2-.2-.3-.5-.3-.7s.1-.5.3-.7l1.4-1.4c.4-.4 1-.4 1.4 0l.1.1 5.5 5.9c.2.2.5.2.7 0L22.8 3.3h.1c.4-.4 1-.4 1.4 0l1.4 1.4c.4.4.4 1 0 1.4l-16 16.6c-.2.2-.4.3-.7.3-.3 0-.5-.1-.7-.3L.5 14.3.3 14z"/>
</symbol><symbol id="icon-cloud" viewBox="0 0 247.8 153.7">
    <style>
        .st0{fill:#08c}
    </style>
    <path class="st0" d="M201.5 18.3c-8.6 0-16.7 2.3-23.7 6.4-.2-.3-.4-.5-.6-.8-.3-.4-.6-.8-1-1.2-.2-.3-.5-.6-.7-.9-.4-.5-.9-1-1.3-1.5-.2-.3-.5-.5-.7-.8-.5-.5-1-1-1.5-1.6l-.7-.7c-.4-.4-.8-.8-1.2-1.1-.3-.2-.5-.5-.8-.7-.5-.5-1.1-.9-1.6-1.4-.3-.2-.5-.4-.8-.6-.6-.5-1.2-.9-1.8-1.4-.2-.2-.5-.3-.7-.5-.5-.4-1-.7-1.5-1.1-.2-.1-.4-.3-.6-.4-.6-.4-1.3-.8-2-1.3-.2-.1-.5-.3-.7-.4l-2.1-1.2c-.2-.1-.4-.2-.7-.3-.6-.3-1.3-.7-1.9-1-.2-.1-.3-.2-.5-.2-.8-.4-1.5-.7-2.3-1-.2-.1-.4-.2-.7-.3-.8-.3-1.5-.6-2.3-.9-.1-.3-.3-.4-.5-.4-.8-.3-1.5-.5-2.3-.8-.1 0-.2-.1-.3-.1-.8-.3-1.7-.5-2.6-.7-.2-.1-.4-.1-.6-.2-.9-.2-1.7-.4-2.6-.6-.2 0-.4-.1-.5-.1-.9-.2-1.8-.3-2.7-.5h-.1c-.9-.1-1.8-.3-2.8-.4-.2 0-.4 0-.5-.1-.9-.1-1.8-.2-2.7-.2h-.5c-1 0-1.9-.1-2.9-.1s-1.9 0-2.9.1h-.7c-.9.1-1.8.1-2.8.2h-.4l-2.4.3c-.1.2-.3.2-.6.2-.9.1-1.8.3-2.6.5-.2 0-.4.1-.7.1-.7.2-1.5.3-2.2.5-.2 0-.4.1-.6.1-.8.2-1.6.4-2.4.7-.3.1-.5.2-.8.3-.7.2-1.3.4-2 .7-.3.1-.5.2-.8.3-.7.2-1.3.5-2 .8-.3.1-.6.3-1 .4-.6.3-1.2.6-1.9.8l-1.2.6c-.4.2-.9.4-1.3.7-.4.2-.7.4-1.1.6-.6.3-1.2.7-1.8 1-.4.2-.8.5-1.2.7-.1.2-.4.4-.7.6l-2.1 1.5c-.2.1-.4.3-.6.4-.4.3-.9.6-1.3 1-.2.1-.4.3-.6.4-.8.6-1.6 1.3-2.4 2-.1.1-.2.1-.3.2-.5.4-.9.8-1.3 1.2l-.1.1c-.9.8-1.7 1.7-2.5 2.5l-.1.1c-1.3 1.4-2.5 2.8-3.7 4.3l-.1.1c-1.2 1.5-2.3 3-3.3 4.7-2.9-.4-5.9-.6-9-.6-36.5 0-66 29.5-66 66 0 27 16.2 50.2 39.4 60.4-19-10.6-31.9-30.9-31.9-54.2 0-34.3 27.8-62 62-62 3.3 0 6.5.3 9.6.7 9.9-17.6 30.8-27.6 54.2-27.6 26 0 48.1 16.9 55.8 40.3-1.2-6.9-3.6-13.4-6.9-19.4 5.9-2.9 12.6-4.6 19.7-4.6 18.6 0 37.7 11.8 45.9 28.1-4.9-21-23.7-36.7-46.3-36.7z" id="Layer_4"/>
    <path class="st0" d="M105.8 128.1c-.5 0-.8-.4-.5-.8l28.1-44c.3-.5.8-.5 1.1 0l28.1 44c.3.5.1.8-.5.8h-56.3z" id="Layer_6"/>
</symbol><symbol id="icon-crop" viewBox="0 0 512 512">
    <path d="M180 472H40V332c0-11.046-8.954-20-20-20s-20 8.954-20 20v160c0 11.046 8.954 20 20 20h160c11.046 0 20-8.954 20-20s-8.954-20-20-20z"/>
    <path d="M180 0H20C8.954 0 0 8.954 0 20v160c0 11.046 8.954 20 20 20s20-8.954 20-20V40h140c11.046 0 20-8.954 20-20s-8.954-20-20-20z"/>
    <path d="M492 312c-11.046 0-20 8.954-20 20v140H332c-11.046 0-20 8.954-20 20s8.954 20 20 20h160c11.046 0 20-8.954 20-20V332c0-11.046-8.954-20-20-20z"/>
    <path d="M492 0H332c-11.046 0-20 8.954-20 20s8.954 20 20 20h140v140c0 11.046 8.954 20 20 20s20-8.954 20-20V20c0-11.046-8.954-20-20-20z"/>
</symbol><symbol id="icon-envelope" viewBox="0 0 483.3 483.3">
    <path d="M424.3 57.75H59.1c-32.6 0-59.1 26.5-59.1 59.1v249.6c0 32.6 26.5 59.1 59.1 59.1h365.1c32.6 0 59.1-26.5 59.1-59.1v-249.5c.1-32.6-26.4-59.2-59-59.2zm32.1 308.7c0 17.7-14.4 32.1-32.1 32.1H59.1c-17.7 0-32.1-14.4-32.1-32.1v-249.5c0-17.7 14.4-32.1 32.1-32.1h365.1c17.7 0 32.1 14.4 32.1 32.1v249.5h.1z"/>
    <path d="M304.8 238.55l118.2-106c5.5-5 6-13.5 1-19.1-5-5.5-13.5-6-19.1-1l-163 146.3-31.8-28.4c-.1-.1-.2-.2-.2-.3-.7-.7-1.4-1.3-2.2-1.9L78.3 112.35c-5.6-5-14.1-4.5-19.1 1.1-5 5.6-4.5 14.1 1.1 19.1l119.6 106.9-119.1 111.5c-5.4 5.1-5.7 13.6-.6 19.1 2.7 2.8 6.3 4.3 9.9 4.3 3.3 0 6.6-1.2 9.2-3.6l120.9-113.1 32.8 29.3c2.6 2.3 5.8 3.4 9 3.4s6.5-1.2 9-3.5l33.7-30.2 120.2 114.2c2.6 2.5 6 3.7 9.3 3.7 3.6 0 7.1-1.4 9.8-4.2 5.1-5.4 4.9-14-.5-19.1l-118.7-112.7z"/>
</symbol><symbol id="icon-geolocation" viewBox="0 0 54.757 54.757">
    <path d="M40.94 5.617A19.052 19.052 0 0 0 27.38 0a19.05 19.05 0 0 0-13.56 5.617c-6.703 6.702-7.536 19.312-1.804 26.952L27.38 54.757 42.721 32.6c5.755-7.671 4.922-20.281-1.781-26.983zM27.557 26c-3.859 0-7-3.141-7-7s3.141-7 7-7 7 3.141 7 7-3.141 7-7 7z"/>
</symbol><symbol id="icon-gross-pencil" viewBox="0 0 14.588 14.588">
    <path d="M.631 10.539l4 4.049h-4v-4.049zm12.54-8.979l-.774-.774c-.854-.854-2.056-1.042-2.681-.417L8.48 1.604l3.872 3.872 1.234-1.236c.626-.624.439-1.824-.415-2.68zM1.631 9.588l3.979 4.044 6.021-7.044-4-4-6 7z"/>
</symbol><symbol id="icon-information-symbol" viewBox="0 0 513.32 513.32">
    <path d="M235.272 235.272h42.777V384.99h-42.777z"/>
    <path d="M235.272 128.33h42.777v64.165h-42.777z"/>
    <path d="M256.66 0C115.497 0 0 115.497 0 256.66s115.497 256.66 256.66 256.66 256.66-115.497 256.66-256.66S397.823 0 256.66 0zm0 470.543c-117.636 0-213.883-96.247-213.883-213.883S139.024 42.777 256.66 42.777s213.883 96.247 213.883 213.883-96.247 213.883-213.883 213.883z"/>
</symbol><symbol id="icon-left-arrow" viewBox="0 0 31.059 31.059">
    <path d="M30.171 16.416H.888a.887.887 0 1 1 0-1.775h29.283a.889.889 0 0 1 0 1.775z"/>
    <path d="M16.017 31.059a.883.883 0 0 1-.617-.25L.271 16.166a.884.884 0 0 1 0-1.275L15.4.25a.888.888 0 1 1 1.234 1.275L2.163 15.529l14.471 14.004a.889.889 0 0 1-.617 1.526z"/>
</symbol><symbol id="icon-logout" viewBox="0 0 512.001 512.001">
    <path d="M505.651 243.741l-54.782-38.622c-9.916-6.99-23.644.116-23.644 12.26v77.242c0 12.194 13.757 19.227 23.643 12.26l54.782-38.621c8.479-5.978 8.456-18.556.001-24.519z"/>
    <path d="M430.46 352.315c-7.169-4.146-16.346-1.698-20.495 5.474-35.236 60.915-101.1 101.807-176.367 101.807C121.334 459.597 30 368.263 30 256.001S121.334 52.404 233.597 52.404c75.317 0 141.153 40.932 176.366 101.806 4.148 7.172 13.327 9.619 20.495 5.474 7.171-4.148 9.621-13.324 5.474-20.495C395.408 69.133 319.721 22.404 233.597 22.404 104.487 22.404 0 126.88 0 256.001c0 129.11 104.476 233.596 233.597 233.596 86.161 0 161.829-46.762 202.337-116.787 4.147-7.171 1.697-16.346-5.474-20.495z"/>
    <path d="M164.192 241.001c-8.284 0-15 6.715-15 15 0 8.284 6.716 15 15 15h233.031v-30H164.192z"/>
</symbol><symbol id="icon-magic-wand" viewBox="0 0 489.946 489.946">
    <path d="M473.025 146.954l-110.5-18.8-16.6-110.4c-2.5-17.9-24.6-23.5-35.4-10.4l-69.9 85.5-104.2-41.7c-22-7.7-33.7 9.9-27.1 26l39.6 106.3-86.5 67.7c-6.3 5.2-9.4 12.5-7.3 20.8 2.1 7.3 8.3 13.5 16.7 14.6l83.6 14.2-149.2 153.6c-8.3 8.3-8.3 20.8 0 29.2 8.3 8.3 20.8 8.3 29.2 0l150.5-154.9 13.1 86.1c.8 15.7 23 24.6 35.4 10.4l69.8-85.4 104.2 41.7c20.4 7.9 30.6-8.5 28.1-19.8-.7-3.1-40.6-111.5-40.6-111.5l86.5-67.7c12.8-10.7 9-32-9.4-35.5zm-115.7 80.3c-7.3 5.2-9.4 14.6-6.3 22.9l28.1 75-74-30.2c-7.3-3.1-17.7-1-22.9 6.3l-50 61.5-12.5-79.2c-1-8.3-8.3-15.6-16.7-16.7l-79.2-13.5 62.5-49c7.3-5.2 9.4-14.6 6.3-22.9l-28.1-75 74 30.2c7.3 3.1 17.7 1 22.9-6.3l50-61.5 12.5 79.2c1 8.3 8.3 15.6 16.7 16.7l79.2 13.5-62.5 49z"/>
</symbol><symbol id="icon-magnifying-glass" viewBox="0 0 451 451">
    <path d="M447.05 428l-109.6-109.6c29.4-33.8 47.2-77.9 47.2-126.1C384.65 86.2 298.35 0 192.35 0 86.25 0 .05 86.3.05 192.3s86.3 192.3 192.3 192.3c48.2 0 92.3-17.8 126.1-47.2L428.05 447c2.6 2.6 6.1 4 9.5 4s6.9-1.3 9.5-4c5.2-5.2 5.2-13.8 0-19zM26.95 192.3c0-91.2 74.2-165.3 165.3-165.3 91.2 0 165.3 74.2 165.3 165.3s-74.1 165.4-165.3 165.4c-91.1 0-165.3-74.2-165.3-165.4z"/>
</symbol><symbol id="icon-man-user" viewBox="0 0 350 350">
    <path d="M175 171.173c38.914 0 70.463-38.318 70.463-85.586C245.463 38.318 235.105 0 175 0s-70.465 38.318-70.465 85.587c0 47.268 31.549 85.586 70.465 85.586z"/>
    <path d="M41.909 301.853c-.012-2.882-.024-.812 0 0z"/>
    <path d="M308.085 304.104c.038-.789.013-5.474 0 0z"/>
    <path d="M307.935 298.397c-1.305-82.342-12.059-105.805-94.352-120.657 0 0-11.584 14.761-38.584 14.761s-38.586-14.761-38.586-14.761C55.018 192.43 43.61 215.545 42.11 295.722c-.123 6.547-.18 6.891-.202 6.131.005 1.424.011 4.058.011 8.651 0 0 19.592 39.496 133.08 39.496 113.486 0 133.08-39.496 133.08-39.496 0-2.951.002-5.003.005-6.399-.022.47-.066-.441-.149-5.708z"/>
</symbol><symbol id="icon-move-to-next" viewBox="0 0 46.02 46.02">
    <path d="M14.757 46.02a5.688 5.688 0 0 1-3.929-1.569 5.705 5.705 0 0 1-.204-8.063L23.382 22.97 10.637 9.645a5.703 5.703 0 0 1 8.242-7.884l16.505 17.253a5.707 5.707 0 0 1 .013 7.872L18.893 44.247a5.699 5.699 0 0 1-4.136 1.773z"/>
</symbol><symbol id="icon-point-at" viewBox="0 0 512 512">
    <path d="M433.933 389.424H414.61l17.785-44.779a48.668 48.668 0 0 0 3.452-18.043l.002-125.28c0-24.365-18.208-45.191-42.356-48.444l-.164-.022-129.825-16.206V51.955C263.504 23.307 240.198 0 211.55 0s-51.955 23.307-51.955 51.955v176.478l-24.59-15.758c-23.205-14.866-54.218-7.14-67.729 16.883-11.12 19.77-7.085 44.148 9.812 59.281l99.01 88.678 4.729 11.908h-8.921c-9.404 0-17.029 7.624-17.029 17.029v88.518c0 9.404 7.624 17.029 17.029 17.029h262.026c9.404 0 17.029-7.624 17.029-17.029v-88.518c.001-9.405-7.624-17.03-17.028-17.03zM99.809 263.468c-4.907-4.395-6.078-11.473-2.848-17.215 3.926-6.981 12.903-9.241 19.669-4.902l50.806 32.557c11.316 7.253 26.216-.895 26.216-14.337V51.955c0-9.868 8.029-17.897 17.897-17.897s17.897 8.029 17.897 17.897v99.731c0 8.588 6.396 15.833 14.92 16.898l144.648 18.058c7.289 1.015 12.777 7.313 12.777 14.681l-.002 125.28c0 1.881-.353 3.721-1.047 5.47l-22.778 57.352H217.475l-11.203-28.205a17.035 17.035 0 0 0-4.466-6.399L99.809 263.468zm317.095 214.474H188.936v-54.46h227.968v54.46z"/>
</symbol><symbol id="icon-problem" viewBox="0 0 512 512">
    <path d="M266.609 357.859c-2.799-2.791-6.659-4.39-10.609-4.39s-7.81 1.6-10.61 4.39a15.111 15.111 0 0 0-4.39 10.61c0 3.95 1.6 7.81 4.39 10.6 2.8 2.79 6.66 4.391 10.61 4.391s7.81-1.601 10.609-4.391a15.105 15.105 0 0 0 4.391-10.6c0-3.95-1.601-7.82-4.391-10.61z"/>
    <path d="M437.019 74.98C388.667 26.629 324.38 0 256 0 187.619 0 123.331 26.629 74.98 74.98 26.628 123.333 0 187.62 0 256c0 63.355 22.874 123.188 64.69 170.097L4.394 486.392c-5.858 5.857-5.858 15.354 0 21.213a14.947 14.947 0 0 0 10.607 4.393c3.838 0 7.678-1.465 10.606-4.393l60.297-60.295C132.813 489.125 192.645 512 256.001 512c68.38 0 132.667-26.629 181.019-74.98C485.371 388.666 512 324.38 512 256s-26.629-132.667-74.981-181.02zM256 481.998C131.383 481.998 30 380.616 30 256 30 131.383 131.383 30 256 30s226 101.383 226 226c0 124.616-101.383 225.998-226 225.998z"/>
    <path d="M256 128.534c-8.284 0-15 6.716-15 15v128.531c0 8.284 6.716 15 15 15s15-6.716 15-15V143.534c0-8.284-6.716-15-15-15z"/>
</symbol><symbol id="icon-question" viewBox="0 0 511.999 511.999">
    <path d="M256 0C134.684 0 36 96.243 36 215.851c0 68.63 33.021 132.639 88.879 173.334V492a20 20 0 0 0 33.539 14.72l82.144-75.555c5.17.355 10.335.535 15.438.535 121.316 0 220-96.243 220-215.851C476 96.13 377.21 0 256 0zm0 391.701c-6.687 0-13.516-.376-20.298-1.118a19.977 19.977 0 0 0-15.715 5.161l-55.108 50.687v-67.726a20.002 20.002 0 0 0-9.034-16.726C105.848 329.2 76 274.573 76 215.851 76 118.886 156.747 40 256 40s180 78.886 180 175.851c0 96.963-80.748 175.85-180 175.85z"/>
    <path d="M266 98.877h-70c-11.046 0-20 8.954-20 20s8.954 20 20 20h70c16.542 0 30 13.458 30 30s-13.458 30-30 30h-20c-11.046 0-20 8.954-20 20v28.793c0 11.046 8.954 20 20 20s20-8.954 20-20v-8.793c38.598 0 70-31.401 70-70 0-38.598-31.402-70-70-70z"/>
    <circle cx="246" cy="319.16" r="27"/>
</symbol><symbol id="icon-right-arrow" viewBox="0 0 31.059 31.059">
    <path d="M30.171 16.416H.888a.887.887 0 1 1 0-1.775h29.283a.889.889 0 0 1 0 1.775z"/>
    <path d="M16.017 31.059a.883.883 0 0 1-.617-.25L.271 16.166a.884.884 0 0 1 0-1.275L15.4.25a.888.888 0 1 1 1.234 1.275L2.163 15.529l14.471 14.004a.889.889 0 0 1-.617 1.526z"/>
</symbol><symbol id="icon-rotate" viewBox="0 0 498.791 498.791">
    <path d="M63.785 180.391c-8-3.2-17.6 0-20.8 8-3.2 8-6.4 16-9.6 25.6-1.6 8 3.2 16 11.2 19.2h4.8c6.4 0 12.8-4.8 14.4-9.6 1.6-8 4.8-16 8-22.4 3.2-8 0-17.6-8-20.8z"/>
    <path d="M63.785 321.191c-3.2-12.8-6.4-25.6-6.4-38.4-1.6-8-9.6-14.4-17.6-14.4-8 1.6-14.4 8-14.4 17.6 0 16 3.2 32 6.4 46.4 3.2 6.4 9.6 11.2 16 11.2 1.6 0 3.2 0 4.8-3.2 8-1.6 12.8-11.2 11.2-19.2z"/>
    <path d="M132.585 426.791c-17.6-12.8-32-28.8-44.8-48-4.8-8-14.4-9.6-22.4-4.8s-9.6 14.4-4.8 22.4c14.4 20.8 32 40 52.8 56 3.2 1.6 6.4 3.2 9.6 3.2 4.8 0 9.6-1.6 12.8-6.4 4.8-6.4 3.2-17.6-3.2-22.4z"/>
    <path d="M327.785 468.391c-3.2-9.6-12.8-14.4-20.8-11.2-36.8 11.2-76.8 11.2-113.6 0-9.6-1.6-17.6 3.2-20.8 11.2-1.6 9.6 3.2 17.6 11.2 20.8 20.8 6.4 43.2 9.6 65.6 9.6 22.4 0 44.8-3.2 67.2-9.6 9.6-3.2 14.4-11.2 11.2-20.8z"/>
    <path d="M457.385 189.991c-22.4-56-65.6-99.2-120-123.2-36.8-16-76.8-20.8-116.8-16-9.6 1.6-16 9.6-14.4 17.6 1.6 9.6 9.6 16 17.6 14.4 35.2-4.8 68.8 1.6 100.8 14.4 46.4 20.8 83.2 57.6 102.4 105.6s19.2 100.8-1.6 147.2c-12.8 28.8-32 56-57.6 75.2-8 4.8-8 16-3.2 22.4 3.2 4.8 8 6.4 12.8 6.4 3.2 0 6.4 0 11.2-4.8 28.8-22.4 52.8-52.8 67.2-88 22.4-54.4 24-115.2 1.6-171.2z"/>
    <path d="M287.785 5.991c-4.8-6.4-16-8-22.4-3.2l-59.2 44.8c-8 4.8-8 16-3.2 22.4l46.4 60.8c3.2 4.8 8 6.4 12.8 6.4 3.2 0 6.4 0 8-1.6 8-4.8 8-16 3.2-22.4l-36.8-48 48-36.8c8-4.8 8-16 3.2-22.4z"/>
</symbol><symbol id="icon-security" viewBox="0 0 214.27 214.27">
    <path d="M196.926 55.171c-.11-5.785-.215-11.25-.215-16.537a7.5 7.5 0 0 0-7.5-7.5c-32.075 0-56.496-9.218-76.852-29.01a7.498 7.498 0 0 0-10.457 0c-20.354 19.792-44.771 29.01-76.844 29.01a7.5 7.5 0 0 0-7.5 7.5c0 5.288-.104 10.755-.215 16.541-1.028 53.836-2.436 127.567 87.331 158.682a7.495 7.495 0 0 0 4.912 0c89.774-31.116 88.368-104.849 87.34-158.686zm-89.795 143.641c-76.987-27.967-75.823-89.232-74.79-143.351.062-3.248.122-6.396.164-9.482 30.04-1.268 54.062-10.371 74.626-28.285 20.566 17.914 44.592 27.018 74.634 28.285.042 3.085.102 6.231.164 9.477 1.032 54.121 2.195 115.388-74.798 143.356z"/>
    <path d="M132.958 81.082l-36.199 36.197-15.447-15.447a7.501 7.501 0 0 0-10.606 10.607l20.75 20.75a7.477 7.477 0 0 0 5.303 2.196 7.477 7.477 0 0 0 5.303-2.196l41.501-41.5a7.498 7.498 0 0 0 .001-10.606 7.5 7.5 0 0 0-10.606-.001z"/>
</symbol><symbol id="icon-settings" viewBox="0 0 511.999 511.999">
    <path d="M489.175 206.556a1566.991 1566.991 0 0 0-29.379-4.111c-1.195-.155-2.165-.966-2.467-2.064a207.8 207.8 0 0 0-19.636-47.389c-.57-1.002-.463-2.266.273-3.223a1575.02 1575.02 0 0 0 17.876-23.69c7.824-10.578 6.688-25.588-2.64-34.917l-32.366-32.366c-9.329-9.328-24.338-10.464-34.918-2.638a1579.273 1579.273 0 0 0-23.689 17.875c-.954.736-2.221.843-3.223.274a207.812 207.812 0 0 0-47.389-19.637c-1.099-.301-1.91-1.271-2.066-2.469a1587.93 1587.93 0 0 0-4.109-29.376C303.495 9.812 292.079 0 278.886 0h-45.773c-13.194 0-24.61 9.812-26.554 22.824a1579.752 1579.752 0 0 0-4.11 29.379c-.157 1.197-.967 2.165-2.067 2.467a207.876 207.876 0 0 0-47.387 19.637c-1.003.569-2.269.459-3.225-.274a1575.991 1575.991 0 0 0-23.69-17.876c-10.581-7.825-25.59-6.687-34.917 2.64L58.797 91.163c-9.329 9.33-10.464 24.341-2.638 34.918a1580.844 1580.844 0 0 0 17.875 23.688c.735.955.843 2.22.274 3.223a207.826 207.826 0 0 0-19.637 47.389c-.301 1.097-1.271 1.908-2.467 2.065a1587.026 1587.026 0 0 0-29.378 4.111C9.812 208.502 0 219.92 0 233.112v45.774c0 13.193 9.812 24.61 22.824 26.556a1578.724 1578.724 0 0 0 29.379 4.11c1.197.157 2.165.967 2.467 2.066a207.833 207.833 0 0 0 19.637 47.389c.569 1.003.461 2.268-.274 3.223a1571.918 1571.918 0 0 0-17.875 23.689c-7.825 10.578-6.691 25.589 2.638 34.918l32.366 32.366c9.33 9.329 24.341 10.465 34.918 2.638a1579.273 1579.273 0 0 0 23.689-17.875c.955-.736 2.221-.842 3.223-.274a207.846 207.846 0 0 0 47.389 19.637c1.099.302 1.91 1.271 2.066 2.467 1.289 9.88 2.672 19.765 4.11 29.376 1.946 13.013 13.362 22.825 26.556 22.825h45.773c13.193 0 24.61-9.812 26.555-22.827a1597.167 1597.167 0 0 0 4.109-29.376c.157-1.197.967-2.166 2.066-2.469a207.902 207.902 0 0 0 47.388-19.637c1.003-.567 2.268-.459 3.224.274a1574.173 1574.173 0 0 0 23.689 17.875c10.578 7.825 25.588 6.691 34.918-2.638l32.366-32.366c9.328-9.329 10.464-24.339 2.639-34.918a1607.832 1607.832 0 0 0-17.876-23.689c-.735-.955-.843-2.22-.273-3.223a207.841 207.841 0 0 0 19.636-47.388c.304-1.1 1.272-1.91 2.469-2.067a1578.782 1578.782 0 0 0 29.378-4.11c13.013-1.945 22.825-13.362 22.825-26.555v-45.774c0-13.19-9.812-24.608-22.824-26.553zm-1.084 72.332c0 1.45-1.054 2.7-2.453 2.911a1571.912 1571.912 0 0 1-28.932 4.048c-10.758 1.402-19.56 9.024-22.426 19.42a183.951 183.951 0 0 1-17.375 41.932c-5.333 9.389-4.504 21.012 2.112 29.612a1559.297 1559.297 0 0 1 17.604 23.329c.842 1.137.702 2.769-.323 3.794L403.931 436.3c-1.026 1.026-2.657 1.163-3.793.324a1565.489 1565.489 0 0 1-23.33-17.605c-8.599-6.617-20.221-7.446-29.609-2.114a183.98 183.98 0 0 1-41.934 17.377c-10.394 2.865-18.016 11.667-19.421 22.426a1549.245 1549.245 0 0 1-4.047 28.932c-.209 1.399-1.461 2.453-2.911 2.453h-45.773c-1.45 0-2.702-1.054-2.911-2.454a1567.626 1567.626 0 0 1-4.047-28.93c-1.403-10.759-9.027-19.561-19.421-22.426a183.901 183.901 0 0 1-41.934-17.378 26.697 26.697 0 0 0-13.196-3.491 26.872 26.872 0 0 0-16.412 5.607 1570.69 1570.69 0 0 1-23.33 17.605c-1.138.839-2.767.702-3.792-.324l-32.367-32.366c-1.026-1.026-1.166-2.656-.324-3.793a1554.583 1554.583 0 0 1 17.604-23.33c6.615-8.6 7.445-20.221 2.114-29.609A183.93 183.93 0 0 1 77.72 305.27c-2.865-10.394-11.667-18.017-22.425-19.42a1574.379 1574.379 0 0 1-28.934-4.048c-1.399-.21-2.453-1.461-2.453-2.911v-45.774c0-1.45 1.054-2.701 2.453-2.911a1566.765 1566.765 0 0 1 28.932-4.048c10.759-1.402 19.561-9.025 22.426-19.42a183.86 183.86 0 0 1 17.377-41.934c5.332-9.389 4.502-21.011-2.113-29.609a1575.762 1575.762 0 0 1-17.604-23.33c-.84-1.137-.701-2.769.324-3.793l32.365-32.367c1.024-1.026 2.655-1.163 3.792-.324a1556.978 1556.978 0 0 1 23.33 17.605c8.6 6.614 20.221 7.445 29.611 2.112a183.928 183.928 0 0 1 41.932-17.377c10.395-2.865 18.019-11.667 19.422-22.426a1562.97 1562.97 0 0 1 4.048-28.933c.209-1.397 1.461-2.452 2.911-2.452h45.773c1.45 0 2.702 1.054 2.911 2.453a1555.746 1555.746 0 0 1 4.048 28.932c1.403 10.759 9.027 19.561 19.421 22.426a183.999 183.999 0 0 1 41.934 17.377c9.388 5.33 21.01 4.502 29.608-2.114a1568.83 1568.83 0 0 1 23.329-17.604c1.137-.842 2.769-.703 3.794.324l32.366 32.366c1.026 1.026 1.164 2.657.324 3.793a1549.126 1549.126 0 0 1-17.604 23.33c-6.615 8.601-7.445 20.223-2.112 29.612a183.928 183.928 0 0 1 17.377 41.933c2.865 10.394 11.669 18.016 22.424 19.418 9.716 1.268 19.451 2.63 28.934 4.048 1.399.21 2.453 1.461 2.453 2.911v45.773z"/>
    <path d="M256 144.866c-61.28 0-111.134 49.854-111.134 111.134S194.72 367.134 256 367.134 367.134 317.28 367.134 256 317.28 144.866 256 144.866zm0 198.359c-48.097 0-87.225-39.129-87.225-87.225 0-48.097 39.13-87.225 87.225-87.225 48.096 0 87.225 39.129 87.225 87.225S304.097 343.225 256 343.225z"/>
</symbol><symbol id="icon-shelter" viewBox="0 0 301.884 301.884">
    <path d="M297.658 125.357L159.503 17.28c-2.361-1.848-5.401-2.865-8.562-2.865-3.16 0-6.2 1.018-8.56 2.864L4.226 125.357c-5.416 4.236-4.265 9.128-3.782 10.526.481 1.398 2.589 5.961 9.465 5.961h27.5v133.125c0 6.893 5.607 12.5 12.5 12.5h64.7c6.892 0 12.5-5.607 12.5-12.5v-59.578h47.666v59.578c0 6.893 5.607 12.5 12.5 12.5h64.7c6.893 0 12.5-5.607 12.5-12.5V141.844h27.5c6.876 0 8.983-4.563 9.465-5.961.482-1.398 1.634-6.29-3.782-10.526zm-35.683 1.487c-6.893 0-12.5 5.607-12.5 12.5v133.125h-59.7v-59.578c0-6.893-5.607-12.5-12.5-12.5h-52.666c-6.893 0-12.5 5.607-12.5 12.5v59.578h-59.7V139.344c0-6.893-5.608-12.5-12.5-12.5h-13.24l124.272-97.217 124.272 97.217h-13.238z"/>
</symbol><symbol id="icon-shuffle" viewBox="0 0 489.9 489.9">
    <path d="M391.2 469.994c3.4 3.4 7.8 5.1 12.3 5.1 4.3 0 8.7-1.6 12-4.9l69.3-67.8c3.3-3.2 5.1-7.6 5.1-12.3s-1.9-9-5.1-12.3l-69.3-67.8c-6.8-6.6-17.6-6.5-24.3.2-6.6 6.8-6.5 17.6.2 24.3l39.2 38.4h-43.5c-26.5 0-51.4-11.7-68.5-32l-151-205.5c-23.1-32.7-60.8-52.3-100.8-52.3H17.2c-9.5 0-17.1 7.7-17.1 17.2s7.7 17.1 17.1 17.1h49.6c28.9 0 56.2 14.1 73 38l151.6 206.3c.2.3.4.5.6.8 23.6 28.5 58.2 44.9 95.2 44.9h43.5l-39.2 38.4c-6.9 6.6-7 17.4-.3 24.2z"/>
    <path d="M484.7 87.994l-69.7-68.3c-6.8-6.6-17.6-6.5-24.3.2-6.6 6.8-6.5 17.6.2 24.3l39.7 38.9h-43.5c-36.9 0-71.6 16.3-95.2 44.8-.2.2-.4.5-.6.8l-28.4 38.7c-5.6 7.6-4 18.4 3.7 24 3.1 2.2 6.6 3.3 10.1 3.3 5.3 0 10.5-2.4 13.8-7l28.1-38.2c17-20.4 41.9-32 68.5-32h43.5l-39.7 38.9c-6.8 6.6-6.9 17.5-.2 24.3 3.4 3.4 7.8 5.1 12.3 5.1 4.3 0 8.7-1.6 12-4.9l69.7-68.3c3.3-3.2 5.1-7.6 5.1-12.3s-1.8-9.1-5.1-12.3z"/>
    <path d="M167.5 355.094l24.9-33.8c5.6-7.6 4-18.4-3.7-24-7.6-5.6-18.4-4-24 3.7l-25 34.1c-.1.2-.2.3-.3.5-16.7 23.4-43.9 37.4-72.7 37.4H17.1c-9.5 0-17.1 7.7-17.1 17.2s7.7 17.1 17.1 17.1h49.6c40 0 77.7-19.5 100.8-52.2z"/>
</symbol><symbol id="icon-signature" viewBox="0 0 238.099 238.099">
    <path d="M93.863 85.653l17.996 15.377 19.33 47.891a7.002 7.002 0 0 0 4.383 4.055l93.418 29.501a7 7 0 0 0 8.783-8.783l-29.501-93.418a6.997 6.997 0 0 0-4.062-4.386l-47.736-19.208-15.501-18.14a6.998 6.998 0 0 0-5.048-2.447 7.035 7.035 0 0 0-5.224 2.045l-37.24 37.242a7.001 7.001 0 0 0 .402 10.271zm121.938 64.952l-47.044-47.045a7 7 0 0 0-9.9 9.899l47.043 47.044-62.963-19.884-16.924-41.928 27.936-27.936 41.97 16.888 19.882 62.962zm-80.552-97.212l7.494 8.77-25.259 25.259-8.77-7.494 26.535-26.535z"/>
    <path d="M231.099 188.008H7a7 7 0 1 0 0 14h224.099a7 7 0 1 0 0-14z"/>
</symbol><symbol id="icon-target" viewBox="0 0 512 512">
    <path d="M501 245.6h-59.7C436 151.7 360.3 76 266.4 70.7V11h-20.9v59.7C151.7 76 76 151.7 70.7 245.6H11v20.9h59.7c5.3 93.8 81 169.5 174.9 174.8V501h20.9v-59.7c93.9-5.3 169.6-80.9 174.8-174.8H501v-20.9zm-80.6 0h-48.1c-4.9-56.3-49.6-100.9-105.9-105.9V91.6c82.5 5.2 148.8 71.5 154 154zm-69.1 20.8c-4.9 44.7-40.9 80-84.9 84.9v-31.7h-20.9v31.8c-44.8-4.8-80.1-40.1-84.9-84.9h31.8v-20.9h-31.7c4.9-44.7 40.9-80 84.9-84.9v31.7h20.9v-31.7c44 4.9 80 40.2 84.9 84.9h-31.7v20.9h31.6zM245.6 91.5v48.1c-56.3 4.9-100.9 49.6-105.9 105.9H91.6c5.2-82.5 71.5-148.8 154-154zm-154 174.8h48.1c4.9 56.3 49.6 100.9 105.9 105.9v48.1c-82.5-5.2-148.8-71.5-154-154zm174.8 154v-48.1c56.3-4.9 100.9-49.6 105.9-105.9h48.1c-5.2 82.5-71.5 148.8-154 154z"/>
</symbol><symbol id="icon-user" viewBox="0 0 492.32 492.32">
    <path d="M312.8 295.6a229.439 229.439 0 0 0 51.52-145.44c0-79.529-64.471-144-144-144s-144 64.471-144 144a226.88 226.88 0 0 0 56.16 151.04A238.081 238.081 0 0 0 0 385.36l25.12 19.84a206.721 206.721 0 0 1 140.64-77.92c34.721 20.228 77.75 19.736 112-1.28h6.56a206.87 206.87 0 0 1 75.84 14.4l11.52-30.24a235.222 235.222 0 0 0-58.88-14.56zm-92.32 17.6c-74.4 0-114.24-95.2-114.24-163.04C106.24 87.111 157.351 36 220.4 36s114.16 51.111 114.16 114.16c0 68.32-39.68 163.04-114.08 163.04z"/>
    <path d="M428.32 390.16v-64h-32v64h-64v32h64v64h32v-64h64v-32z"/>
</symbol></svg>